<svg xmlns="http://www.w3.org/2000/svg" viewBox="0 0 296.44 281.96"><defs><style>.cls-1,.cls-3,.cls-4,.cls-5{fill:none;stroke:#fff;}.cls-1,.cls-5{stroke-miterlimit:10;}.cls-2,.cls-7,.cls-8{fill:#fff;}.cls-3{stroke-miterlimit:10;stroke-width:1.99px;}.cls-4{stroke-linecap:round;stroke-linejoin:round;stroke-width:0.66px;}.cls-5{stroke-width:1.99px;}.cls-6,.cls-7,.cls-8{isolation:isolate;}.cls-6,.cls-7{font-size:174.36px;font-family:ArialMT, Arial;}.cls-6{fill:#e8b678;}.cls-8{font-size:105.28px;font-family:BookmanOldStyle, Bookman Old Style;}</style></defs><g id="Layer_2" data-name="Layer 2"><g id="Layer_1-2" data-name="Layer 1"><path class="cls-1" d="M94.78,27a81.65,81.65,0,0,0-4.45,15.47,74,74,0,0,1-3.33,13A64,64,0,0,1,71.67,78.73s-1.2,1.93-1.75,2.84l-.59-.74a12.35,12.35,0,0,0,1.59-3.11c1.85-7.13,1.2-14.62,3.62-21.69C78.49,44.47,86.41,36,93.87,26.6c.23-.26,1-1.24,1.23-1.06S94.88,26.68,94.78,27Z"/><path class="cls-1" d="M92.52,30a79.39,79.39,0,0,0-2.63,9.18c-1.11,5-1.72,10.11-3.45,15-2.89,8.13-7.7,15-13.17,21.42a140.65,140.65,0,0,0,10.39-27c.36-1.33-.15-.81-.37-.32-2,4.8-3.47,10-5.31,14.88a106.68,106.68,0,0,1-5.39,12c1-5.58.71-11.46,2.49-16.89A55.63,55.63,0,0,1,83.64,41.4C86.54,37.56,89.53,33.76,92.52,30Z"/><path class="cls-1" d="M7.06,98.73a4.18,4.18,0,0,0-.28-.56A4.18,4.18,0,0,0,7.06,98.73Z"/><path class="cls-1" d="M93.72,195.35a75.49,75.49,0,0,0-7.42-11.91h0c-2.15-6.61-1-13-1.47-19.78a47.43,47.43,0,0,0-4.21-16.24A48.51,48.51,0,0,0,57.76,123.9a.65.65,0,0,0-.85.32.62.62,0,0,0,.27.82l.14.07c7.2,8.67,9.55,20.12,12.22,30.71a62.39,62.39,0,0,0,6.08,15.24l-.15-.1h0v-.06c-1.28-2.45-3.66-4.39-5.92-6h0c-3.06-3-6.13-6.06-9.1-9.13-.49-.5-1-1-1.46-1.53h0a123.66,123.66,0,0,0-8.2-30.63c-3.65-8.65-8.17-17.28-14.87-24A3.2,3.2,0,0,0,35,99c-.4-.06-.5.43-.37.89,1.37,4.87,1.27,9.91,2.12,14.87a49.37,49.37,0,0,0,4.13,12.89c4.11,8.58,11.39,15.24,15.48,23.78-1.6-1.76-3.17-3.53-4.68-5.35A94.15,94.15,0,0,0,41,131.3c-2.62-4.27-5.08-8.66-7.64-13h0v-.06c.13-9-5.87-17.08-12.24-22.81C14.44,89.42,4,84,4,73.54A.65.65,0,0,0,3.31,73a.63.63,0,0,0-.51.33C-.84,79.58.16,87.4,3.61,93.65h0c-1.24,5,.71,11.25,2.54,15.58A44.24,44.24,0,0,0,18.64,126a70.89,70.89,0,0,0,14.71,8.85c6,2.89,12.59,6.05,16.74,11.4-14.24-9.66-35.35-9.42-45.32-25.16a.66.66,0,0,0-.91-.13.64.64,0,0,0-.24.68C7.08,133.1,14.42,143.3,25,149.1s22.48,2.24,33.16,7c2.3,1.86,4.52,3.83,6.63,5.9a42.18,42.18,0,0,0-11.32-4,46.49,46.49,0,0,0-18.54.35c-4,.84-7.84,2-11.83,2.77A19.2,19.2,0,0,1,10,159.67c-.68-.31-1.37.62-.75,1.1,8.75,6.82,18.9,13,30.38,12.77,5.57-.09,10.81-2,16.19-3.22,6.77-1.49,12.38-.31,18.81,1.75,2,2.05,3.86,4.14,5.71,6.27h0a60.19,60.19,0,0,0,4.06,4.94A88.69,88.69,0,0,1,92.78,196C93.13,196.6,94,196,93.72,195.35Zm-56.16-67.8a99.59,99.59,0,0,0-9.68-8.68c-6.41-5-13.4-10.55-17.91-17.55,7.08,6.11,16.34,9.69,22.23,17,0,0,.29.35.37.48h0C34.26,121.73,35.89,124.65,37.56,127.55ZM2.91,76c1.23,8,8.73,13.52,14.7,18.27,6.67,5.32,12.62,12.3,14.2,20.77-2.47-5.35-6.7-9.21-11.39-12.85-7.81-6.06-12.65-12.93-17.1-21.7-.14-.26-.54-.07-.41.19C6,87.27,9.55,93.58,15,98.56c6.23,5.68,12.64,9.69,16.34,17.3-5.63-6-13.5-9.51-19.74-14.74a30.79,30.79,0,0,1-3.91-4A26.5,26.5,0,0,1,5.82,91.5s-.09-.27-.17-.56H5.59a.24.24,0,0,0-.08-.06H5.42a.62.62,0,0,0-.81.27,6.43,6.43,0,0,0-.39.79C1.67,86.9.76,81.24,2.91,76Zm21,52.39a43.32,43.32,0,0,1-14.13-14.8c-2.71-4.68-6.09-12.19-5.2-18.29h0A21.25,21.25,0,0,1,4.93,93a23,23,0,0,0,1.83,5.16h0a4.18,4.18,0,0,0,.28.56H7c3.77,7.64,10.75,13.87,17.16,18.93a119.88,119.88,0,0,1,17,16.1c1.13,1.34,2.22,2.7,3.28,4.1-4.84-4.85-10.82-8.79-16.23-12.79-4-2.94-8.23-5.65-11.69-9.21-3.64-3.75-6.29-8.28-9-12.7-.17-.28-.62-.08-.46.22,4.27,8,9.09,14.11,16.44,19.48,7.14,5.22,14.94,10.33,21.15,16.75-6.37-4.46-14.35-7.14-20.75-11.29ZM43,129.1a48.07,48.07,0,0,1-5.29-16.68c-.45-3.56-.56-7.13-1.31-10.6,6,6.64,10.13,15,13.51,23.14a115.49,115.49,0,0,1,6.41,21.62c-3.86-12.58-12.25-23.5-15.5-36.36-.06-.21-.39-.16-.35.06C43.12,123.65,51,135.61,56,148.23c-3.86-6.66-9.33-12.35-13-19.18ZM6.25,125.31C19,140.08,43.39,138.05,55.92,153.13c-4.91-3.66-10.66-5.94-16.46-7.84-7.66-2.51-16.87-4.18-23.14-9.53-.25-.21-.63.2-.39.44,4.89,4.88,12.94,6.51,19.34,8.48,7.3,2.23,14.27,4.68,20.5,9.06-8.87-3.08-18.78-.66-27.53-4.53C17.92,144.65,10.36,135.64,6.25,125.31Zm38.31,46.34c-11.21,2-21.48-2.65-30.44-8.93a12.77,12.77,0,0,0,3.59.51c3.33,0,6.78-1,10-1.72,6.61-1.51,12.94-3.23,19.79-2.93a40.25,40.25,0,0,1,18.37,5.48c.72.42,1.52.89,2.33,1.42h0a22.19,22.19,0,0,1,5,4.21,42.37,42.37,0,0,0-21.57-6.24c-9.64-.23-18.79,4.18-28.41,2.79-.36-.05-.39.48,0,.55,8.09,1.78,16-2,24-2.57a45.77,45.77,0,0,1,25.27,5.71,30.38,30.38,0,0,0-12.39-1.72C54.78,168.76,49.78,170.71,44.56,171.65Zm25.27-20.26c-1.82-8.5-4.84-17.87-10.18-25a47.76,47.76,0,0,1,20.88,24.17,45.43,45.43,0,0,1,3.12,17.17A64.51,64.51,0,0,0,84.16,180c-3.55-7.54-3.92-16.53-6.26-24.48s-5.69-15.42-11-21.78a.2.2,0,0,0-.27,0,.18.18,0,0,0,0,.23c6.12,8.06,9.64,17.31,12,27.08,1.49,6.22,1.8,13.37,4.84,19.14q-1.5-1.78-2.82-3.66A67.16,67.16,0,0,1,69.83,151.39Z"/><path class="cls-1" d="M277.7,182a3.7,3.7,0,0,1,.46-.42C278,181.71,277.87,181.85,277.7,182Z"/><path class="cls-1" d="M162.61,241.61A88.92,88.92,0,0,1,175,232.83c1.91-1,3.77-2,5.57-3.13h0c2.49-1.32,5-2.57,7.59-3.78,6.74.4,12.4,1.34,18.17,5.17,4.59,3.06,8.77,6.76,13.93,8.86,10.63,4.34,22.32,2.28,32.94-.91.75-.22.44-1.34-.3-1.29a19.33,19.33,0,0,1-12.73-3.37c-3.43-2.16-6.63-4.64-10-6.86a46.54,46.54,0,0,0-17.16-7,41.62,41.62,0,0,0-12-.37,87.29,87.29,0,0,1,8.32-3.08c11.68-.59,21.65,7,33.45,5.45s22.48-8.44,29.84-17.83a.66.66,0,0,0-.14-.91.65.65,0,0,0-.74,0c-15,11.07-34.58,3.21-51.35,7.06,5.8-3.49,13.11-4,19.73-4.58a71.24,71.24,0,0,0,16.88-3,44.13,44.13,0,0,0,17.72-11.16c3.28-3.37,7.35-8.48,8-13.61h0c5.47-4.58,9.24-11.51,8.12-18.7a.64.64,0,0,0-.73-.54.63.63,0,0,0-.48.35c-3.76,9.75-15.48,11-23.94,14.22-8,3-16.54,8.43-19.66,16.83v.07h0c-4,3.08-7.82,6.28-11.81,9.32A91.52,91.52,0,0,0,219,210c-2.08,1.15-4.18,2.24-6.31,3.29,6.91-6.48,16.1-10,23-16.57a49.57,49.57,0,0,0,8.51-10.52c2.59-4.32,4.31-9,7.36-13.1.28-.38.37-.87,0-1a3.16,3.16,0,0,0-1.06.25c-8.66,3.8-16,10.21-22.53,17A123.66,123.66,0,0,0,209.25,215h0c-.63.31-1.27.61-1.91.9-3.88,1.79-7.83,3.49-11.79,5.22h0c-2.68.66-5.6,1.6-7.68,3.43h-.25a62.46,62.46,0,0,0,11.19-12c6.32-8.92,12.65-18.74,22.5-24.21h.15a.64.64,0,0,0-.12-1.27,48.44,48.44,0,0,0-29.82,13.64,47,47,0,0,0-9.8,13.62c-2.91,6.14-4.13,12.53-8.53,17.91h0A75.56,75.56,0,0,0,162,240.7C161.43,241.18,162.05,242.09,162.61,241.61Zm84-50.1h0c.12-.09.51-.31.51-.31,8.15-4.72,18.08-4.71,26.89-7.84-6.74,4.89-15.25,7.51-23,9.88a96.71,96.71,0,0,0-12.16,4.59c2.64-2.12,5.2-4.25,7.84-6.32Zm36.19-14.87c0-.29-.05-.58-.09-.88a.62.62,0,0,0-.65-.55h-.23l-.36.46a27.66,27.66,0,0,1-3.78,4.57,31.15,31.15,0,0,1-5.08,2.27c-7.71,2.62-16.33,3.09-23.73,6.6,6.2-5.76,13.63-7.18,21.49-10.22,6.88-2.66,12.49-7.26,17.76-12.33a.24.24,0,0,0-.05-.32.23.23,0,0,0-.26,0c-7.33,6.56-14.32,11.21-23.8,14-5.69,1.69-11,3.77-15.26,7.86,4.53-7.33,12.6-11.69,20.74-14.22,7.29-2.28,16.26-4.67,20.32-11.72.08,5.85-2.82,10.76-7,14.49Zm-55.07,29.83c8.12-3.73,17.24-5.67,25.78-7.95,8.79-2.36,15.51-6.31,22.38-12.22.26-.22-.1-.57-.35-.37-4.12,3.14-8.24,6.41-13,8.58-4.52,2.07-9.47,3.06-14.24,4.36-6.48,1.77-13.49,3.28-19.76,6,1.5-.92,3-1.81,4.55-2.63a119.4,119.4,0,0,1,21.71-8.84c7.8-2.4,16.56-5.69,22.84-11.45h0c.17-.14.31-.28.46-.42h0a22.82,22.82,0,0,0,3.57-4.15,21.46,21.46,0,0,1-.49,2.25h0c-1.37,6-7.24,11.8-11.46,15.18a43.51,43.51,0,0,1-18.54,8.62c-7.39,1.57-15.81,1.22-23.42,3Zm-13.6,3.95c9.26-9.94,20.91-18.25,28.23-29.75.12-.19-.17-.36-.3-.18-7.69,10.81-19.46,18-27.61,28.23a115.09,115.09,0,0,1,13.79-17.84c6.11-6.41,13-12.65,21-16.68-2,3-3.35,6.26-5.06,9.4a48.24,48.24,0,0,1-11,13.64c-5.85,5-13,8.38-19,13.18Zm25.53,11c-9.56.44-17.92-5.39-27.3-5.73,7.39-1.83,14.77-1.59,22.38-1,6.68.49,14.78,1.88,21.11-.9.31-.14.1-.66-.21-.55-7.78,2.72-17,.94-25,.51-6.1-.33-12.29-.28-18.18,1.35,17.14-9.53,39.1,1.18,56.37-8-7.56,8.1-17.83,13.76-29.14,14.28Zm-36.55,6.21A30.44,30.44,0,0,0,191,224.71a45.81,45.81,0,0,1,25.62,3.81c7.28,3.43,13.25,9.82,21.44,11.09.34,0,.5-.45.15-.54-9.48-2.18-16.41-9.6-25.48-12.88a42.49,42.49,0,0,0-22.36-2,22.61,22.61,0,0,1,6.2-2.11h0c1-.2,1.86-.35,2.69-.48a40.07,40.07,0,0,1,19.1,1.54c6.5,2.2,11.78,6.1,17.39,9.89,2.74,1.85,5.62,4,8.71,5.22a12.6,12.6,0,0,0,3.53.82c-10.63,2.62-21.9,3.28-31.62-2.68-4.53-2.76-8.49-6.39-13.23-8.8Zm-22.15.3c-1.27.84-2.6,1.63-4,2.39,4.91-4.28,7.8-10.83,11.44-16.09,5.72-8.26,12.35-15.61,21-20.91a.18.18,0,0,0,0-.26.18.18,0,0,0-.21-.07c-7.26,4-13.13,9.79-18.15,16.32s-8.65,14.81-14.69,20.56a66.68,66.68,0,0,0,4.92-11.26,45.41,45.41,0,0,1,9.12-14.88,47.7,47.7,0,0,1,28.21-15c-7.57,4.75-13.77,12.39-18.55,19.66A67.52,67.52,0,0,1,181,227.89Z"/><path class="cls-2" d="M24.89,76.91c1.75,1.1,2.5,3.26,2.82,4.88A4.7,4.7,0,0,0,29,84.15a83.54,83.54,0,0,1,12.36,16.93,110.2,110.2,0,0,1-2.63-20.55A4.13,4.13,0,0,0,38,78.39a6.25,6.25,0,0,1-1.29-4.62c.46-2.47,3.47-2.35,4.1.27a5.32,5.32,0,0,1-.88,3.86,4,4,0,0,0-.58,2.3c.77,12.26,2.76,24.47,8.12,35.59a100.17,100.17,0,0,1-1.09-25.18A55.54,55.54,0,0,1,43.8,67.86,3.51,3.51,0,0,0,43.49,66c-.73-1.46-1.77-4.24-.74-6.83C44,56.11,47.86,57,48,60.58c.1,2.27-1.52,4.28-2.72,5.43a3.26,3.26,0,0,0-1,2.08,56.47,56.47,0,0,0,2.18,21,98.74,98.74,0,0,1,4-19.84,3.37,3.37,0,0,0,0-1.94c-.61-2-1.34-5.81.54-8.9,2.23-3.66,7-1.66,6.41,2.92-.37,3-3,5.21-4.77,6.4a3.3,3.3,0,0,0-1.34,1.8,100.14,100.14,0,0,0-4.06,30.92,58.7,58.7,0,0,1,8.48-23.11,2.75,2.75,0,0,0,.42-1.51c0-1.65.25-4.54,2.24-6.4,2.42-2.28,6,.17,4.65,3.47-.93,2.23-3.71,3.36-5.41,3.87A2.75,2.75,0,0,0,56.05,78a62.42,62.42,0,0,0-7.2,17.6c2.45-5.26,6.75-8.77,11.2-12.35a3.31,3.31,0,0,0,1.09-1.71,6.31,6.31,0,0,1,2.66-3.93c2.19-1.26,4.07,1.11,2.49,3.31a5.72,5.72,0,0,1-4,1.92,3.17,3.17,0,0,0-1.67.71c-4.92,4.11-9.71,8-12,14.42a61.34,61.34,0,0,0-1.09,7A101.79,101.79,0,0,0,50,121.54c0-10.22,4-18.94,10.47-26.87a5.83,5.83,0,0,0,1.17-2.41,8.83,8.83,0,0,1,3.64-5.63C68.16,85,70.64,88.09,68.55,91a6.88,6.88,0,0,1-4.46,2.42,5.71,5.71,0,0,0-3.47,2.08c-6.8,8.69-10.49,18-9.72,29.49a107,107,0,0,0,6.8,18.27c.24.5-.62.93-.88.44a93.63,93.63,0,0,1-9-25.63,61.93,61.93,0,0,1-6-14.82A91.45,91.45,0,0,0,28.7,85a4.7,4.7,0,0,0-2.45-1.35,8.37,8.37,0,0,1-5.51-3.2C18.91,77.68,21.87,75,24.89,76.91Z"/><path class="cls-2" d="M292.62,176.82c-1.94-.73-4.11,0-5.6.7a4.67,4.67,0,0,1-2.65.41,83.94,83.94,0,0,0-20.95.38,110,110,0,0,0,18-10.31,4.1,4.1,0,0,1,2.15-.7,6.37,6.37,0,0,0,4.47-1.76c1.69-1.86-.22-4.19-2.69-3.11a5.28,5.28,0,0,0-2.55,3,3.93,3.93,0,0,1-1.48,1.86c-10.24,6.79-21.18,12.58-33.27,15A99.92,99.92,0,0,0,268.73,168a55.49,55.49,0,0,0,19.68-11.7,3.41,3.41,0,0,1,1.65-.86c1.6-.3,4.44-1.15,5.89-3.53,1.72-2.85-1.35-5.4-4.29-3.37-1.87,1.29-2.49,3.79-2.69,5.45a3.35,3.35,0,0,1-1.05,2,56.7,56.7,0,0,1-18.05,11,99.22,99.22,0,0,0,13.4-15.18,3.32,3.32,0,0,1,1.54-1.17c2-.73,5.44-2.44,6.76-5.8,1.58-4-2.89-6.57-6.19-3.35-2.15,2.1-2.35,5.53-2.22,7.67a3.3,3.3,0,0,1-.62,2.15,100.52,100.52,0,0,1-22.2,21.91,58.77,58.77,0,0,0,13.29-20.71,2.86,2.86,0,0,1,1-1.26c1.33-1,3.46-2.93,3.75-5.65.35-3.3-3.77-4.69-5.57-1.6-1.22,2.09-.45,5,.18,6.64a2.76,2.76,0,0,1,0,2A62.7,62.7,0,0,1,263.24,169c2.71-5.13,2.91-10.67,3.08-16.38a3.21,3.21,0,0,1,.71-1.91,6.33,6.33,0,0,0,1.52-4.49c-.31-2.51-3.34-2.57-4.13,0a5.67,5.67,0,0,0,.86,4.33,3.12,3.12,0,0,1,.44,1.76c-.3,6.4-.54,12.6-4.21,18.31a60.45,60.45,0,0,1-5,5.12,103.4,103.4,0,0,1-14.69,8c8.17-6.15,12.67-14.65,15.1-24.57a5.73,5.73,0,0,1,1.22-2.39c1.07-1.27,2.63-3.63,2.3-6.29-.42-3.3-4.41-3.39-5.46,0a7,7,0,0,0,.77,5,5.77,5.77,0,0,1,.44,4c-2.82,10.66-8,19.19-17.63,25.55a107.11,107.11,0,0,1-18.68,5.62c-.54.11-.36,1,.19,1A93.59,93.59,0,0,0,246,183.37a61.64,61.64,0,0,0,15.41-4.19,91.17,91.17,0,0,1,22.51-.51,4.71,4.71,0,0,1,2.55,1.14,8.33,8.33,0,0,0,5.88,2.46C295.62,182.06,296,178.08,292.62,176.82Z"/><rect class="cls-3" x="62.12" y="34.02" width="189.04" height="189.04" rx="14.8" transform="translate(-45.01 148.41) rotate(-45)"/><line class="cls-1" x1="242.29" y1="169.11" x2="218.14" y2="193.26"/><path class="cls-4" d="M70.09,168.2l-29-29a15.1,15.1,0,0,1,0-21.37h0L146,13a15.11,15.11,0,0,1,21.37,0h0l104.8,104.85a15.11,15.11,0,0,1,0,21.37h0l-14.84,14.85"/><path class="cls-4" d="M183.82,227.59l-16.49,16.48a15.1,15.1,0,0,1-21.37,0h0L90.75,188.86"/><path class="cls-1" d="M60.85,198.54c8.32-1.24,17.3-5.79,19.88-5.84,1,0,1.5-.26,1.58-.62.12-.53-.61-1.33-1.53-2.08a107.73,107.73,0,0,1-9.85-8.76c-6.47-6.24-13-6.72-17.28-6.14-6.71.9-14.24,6.55-19.5,8.54-2.74,1-3.95,1.49-3.8,1.87s.73.45,1.88.77c0,0,3.71.21,9.44,4.66S52.54,199.79,60.85,198.54Z"/><path class="cls-1" d="M60.85,198.54c8.32-1.24,17.3-5.79,19.88-5.84,1,0,1.5-.26,1.58-.62a109.37,109.37,0,0,0-52-6.57c.09.24.73.45,1.88.77,0,0,3.71.21,9.44,4.66S52.54,199.79,60.85,198.54Z"/><path class="cls-1" d="M57.07,119.18c-.21.14.13,1.16.21,1.44a84.16,84.16,0,0,1,3.17,15.79,73.28,73.28,0,0,0,2.25,13.32,63.88,63.88,0,0,0,13.39,24.38.24.24,0,0,0,.14.1A97.25,97.25,0,0,0,85,189.66L89,193c-.91-1.17-1.86-2.43-2.43-3.21a28.85,28.85,0,0,0,4.76-16.48A30.23,30.23,0,0,0,90,164.69c-1.19-3.82-3-7.41-3.67-11.42a5.37,5.37,0,0,0-.42-1.57c-.18,0-.41,1.21-.47,1.6-1,7-2.59,14-3,21.08A30.64,30.64,0,0,0,84,185.94a98.18,98.18,0,0,1-7-12.06.43.43,0,0,0,0-.16c-1.44-7.43-.06-15-1.94-22.47-3-11.84-10.22-20.91-16.88-30.9C58,120.06,57.29,119,57.07,119.18Z"/><path class="cls-1" d="M83.61,172.4c.58-5.08,1.42-10.14,2.22-15.21,1.26,4.73,3.63,9.17,4,14.16a31.74,31.74,0,0,1-4,17.51v-.07A34.58,34.58,0,0,1,83.61,172.4Z"/><path class="cls-1" d="M67.2,135.92a56.21,56.21,0,0,1,7.16,17.5c1.33,5.56.53,11.39,1.11,17a102,102,0,0,1-4.4-12.4c-1.44-5-2.5-10.31-4.09-15.25-.17-.51-.64-1.07-.39.28a139.44,139.44,0,0,0,8.16,27.73c-4.92-6.9-9.16-14.08-11.38-22.42-1.33-5-1.52-10.11-2.22-15.21a80.89,80.89,0,0,0-1.87-9.37C62,127.84,64.61,131.87,67.2,135.92Z"/><path class="cls-1" d="M263.67,117.19A81,81,0,0,0,260.79,133a76.17,76.17,0,0,1-2,13.35,63.91,63.91,0,0,1-13,24.65c0,.05-1,2-1.45,3l-.67-.68a12.16,12.16,0,0,0,1.28-3.25c1.13-7.27-.26-14.67,1.44-21.94,2.77-11.89,9.81-21.09,16.29-31.22.21-.28.9-1.32,1.12-1.17S263.74,116.91,263.67,117.19Z"/><path class="cls-1" d="M261.72,120.43a81.06,81.06,0,0,0-1.7,9.39c-.6,5.12-.7,10.24-1.93,15.25-2.07,8.38-6.17,15.64-11,22.63a138.7,138.7,0,0,0,7.64-27.88c.23-1.35-.23-.78-.39-.27-1.5,5-2.46,10.29-3.8,15.33a104.84,104.84,0,0,1-4.17,12.47c.47-5.65-.44-11.47.79-17A55.73,55.73,0,0,1,254,132.67C256.54,128.57,259.13,124.49,261.72,120.43Z"/><path class="cls-5" d="M182.56,214.12c1.05,5.57,4.35,11.49,4.45,13.23,0,.69.21,1,.46,1a2.77,2.77,0,0,0,1.36-1.08,71,71,0,0,1,5.63-6.86c4-4.52,4.18-8.93,3.68-11.79-.78-4.49-4.78-9.41-6.26-12.89-.78-1.82-1.11-2.62-1.36-2.51s-.28.5-.47,1.29c0,0,0,2.5-2.88,6.47S181.5,208.56,182.56,214.12Z"/><path class="cls-5" d="M182.56,214.12c1.05,5.57,4.35,11.49,4.45,13.23,0,.69.21,1,.46,1a73.63,73.63,0,0,0,3.05-35.13c-.16.07-.28.5-.47,1.29,0,0,0,2.5-2.88,6.47S181.5,208.56,182.56,214.12Z"/><path class="cls-1" d="M203.54,213.76a5.77,5.77,0,0,0,1-2.79,28.76,28.76,0,0,1,.44-17.15,29.32,29.32,0,0,1,3.9-7.84c2.28-3.28,5.12-6.15,6.94-9.78a4.82,4.82,0,0,1,.87-1.37c.18,0,0,1.28,0,1.67-1.18,6.95-1.75,14.16-3.44,21a31,31,0,0,1-4.95,10.56s-1.45,2-2.43,3.21C205.41,211.8,203.54,213.76,203.54,213.76Z"/><path class="cls-1" d="M205.52,210.19l-.07.06a31.6,31.6,0,0,1,1.43-17.92c1.88-4.64,5.48-8.15,8.11-12.28-.77,5.07-1.49,10.15-2.47,15.17A34.81,34.81,0,0,1,205.52,210.19Z"/><text class="cls-6" transform="translate(103.47 169.11)">&amp;</text><text class="cls-7" transform="translate(103.47 169.11)">&amp;</text><text class="cls-8" transform="translate(197.5 93.03)">D</text><text class="cls-8" transform="translate(77.46 248.5)">A</text></g></g></svg>