<svg xmlns="http://www.w3.org/2000/svg" xmlns:xlink="http://www.w3.org/1999/xlink" viewBox="0 0 222.3 173.32"><defs><style>.cls-1{opacity:0.75;}.cls-2{font-size:85.98px;}.cls-2,.cls-23,.cls-25{fill:#e8b678;}.cls-2,.cls-23{font-family:GreatVibes-Regular, Great Vibes;}.cls-3{fill:url(#linear-gradient);}.cls-4{fill:#f8f5f1;}.cls-5{fill:url(#linear-gradient-2);}.cls-6{fill:url(#linear-gradient-3);}.cls-7{fill:url(#linear-gradient-4);}.cls-8{fill:url(#linear-gradient-5);}.cls-9{fill:url(#linear-gradient-6);}.cls-10{fill:url(#linear-gradient-7);}.cls-11,.cls-12,.cls-13{fill:none;}.cls-11,.cls-12{stroke-miterlimit:10;}.cls-11{stroke-width:1.99px;stroke:url(#linear-gradient-8);}.cls-12,.cls-13{stroke-width:0.66px;}.cls-12{stroke:url(#linear-gradient-9);}.cls-13{stroke-linecap:round;stroke-linejoin:round;stroke:url(#linear-gradient-10);}.cls-14{fill:#f9f5f2;}.cls-15{fill:url(#linear-gradient-11);}.cls-16{fill:url(#linear-gradient-12);}.cls-17{fill:url(#linear-gradient-13);}.cls-18{fill:url(#linear-gradient-14);}.cls-19{fill:url(#linear-gradient-15);}.cls-20{fill:url(#linear-gradient-16);}.cls-21{fill:url(#linear-gradient-17);}.cls-22{fill:url(#linear-gradient-18);}.cls-23{font-size:42.75px;}.cls-24{fill:url(#linear-gradient-19);}.cls-25{font-size:11.04px;font-family:CormorantInfant-Light, CormorantInfant Light;font-weight:300;}.cls-26{fill:url(#linear-gradient-28);}</style><linearGradient id="linear-gradient" x1="63.83" y1="87.74" x2="127.28" y2="87.74" gradientUnits="userSpaceOnUse"><stop offset="0" stop-color="#648095"/><stop offset="0.99" stop-color="#c0d6ee"/></linearGradient><linearGradient id="linear-gradient-2" x1="34.25" y1="-56.64" x2="53.05" y2="-89.56" gradientTransform="matrix(0.55, -0.84, 0.84, 0.55, 196.88, 101.25)" gradientUnits="userSpaceOnUse"><stop offset="0" stop-color="#b38d5d"/><stop offset="0.19" stop-color="#8d6e3f"/><stop offset="0.39" stop-color="#c79d61"/><stop offset="0.55" stop-color="#eebd78"/><stop offset="0.63" stop-color="#fdc981"/><stop offset="0.7" stop-color="#ebbb77"/><stop offset="0.85" stop-color="#be965c"/><stop offset="1" stop-color="#8d6e3f"/></linearGradient><linearGradient id="linear-gradient-3" x1="316.75" y1="47.58" x2="346.21" y2="-4" gradientTransform="matrix(-0.99, 0.11, 0.11, 0.99, 497, -29.39)" xlink:href="#linear-gradient-2"/><linearGradient id="linear-gradient-4" x1="-450.72" y1="70" x2="-425.32" y2="70" gradientTransform="translate(631.96 70.25) rotate(4.71)" xlink:href="#linear-gradient"/><linearGradient id="linear-gradient-5" x1="-396.54" y1="85.79" x2="-371.14" y2="85.79" gradientTransform="matrix(-1, -0.1, -0.1, 1, -363.01, -18.99)" xlink:href="#linear-gradient"/><linearGradient id="linear-gradient-6" x1="-421.11" y1="-27.28" x2="-395.71" y2="-27.28" gradientTransform="translate(549.64 -137.68) rotate(-29.54)" xlink:href="#linear-gradient"/><linearGradient id="linear-gradient-7" x1="-466.25" y1="133.47" x2="-450.06" y2="133.47" gradientTransform="translate(639.69 218.7) rotate(26.49)" xlink:href="#linear-gradient"/><linearGradient id="linear-gradient-8" x1="12.17" y1="86.66" x2="185.49" y2="86.66" gradientUnits="userSpaceOnUse"><stop offset="0" stop-color="#bf8d5b"/><stop offset="0.19" stop-color="#967039"/><stop offset="0.37" stop-color="#c6985b"/><stop offset="0.54" stop-color="#edb876"/><stop offset="0.63" stop-color="#fcc480"/><stop offset="0.71" stop-color="#ebb674"/><stop offset="0.87" stop-color="#bd9054"/><stop offset="1" stop-color="#967039"/></linearGradient><linearGradient id="linear-gradient-9" x1="16.09" y1="58.79" x2="169.68" y2="58.79" xlink:href="#linear-gradient-8"/><linearGradient id="linear-gradient-10" x1="42.71" y1="152.73" x2="164.88" y2="152.73" xlink:href="#linear-gradient-8"/><linearGradient id="linear-gradient-11" x1="202.85" y1="125.42" x2="195.96" y2="93.71" xlink:href="#linear-gradient-8"/><linearGradient id="linear-gradient-12" x1="163.97" y1="32.58" x2="157.08" y2="0.87" gradientTransform="translate(-39.12 265.8) rotate(-68.67)" xlink:href="#linear-gradient-8"/><linearGradient id="linear-gradient-13" x1="180.83" y1="227.8" x2="177.11" y2="210.69" gradientTransform="translate(372.14 -72.09) rotate(85.37)" xlink:href="#linear-gradient-8"/><linearGradient id="linear-gradient-14" x1="119.8" y1="261.86" x2="116.08" y2="244.73" gradientTransform="translate(-33.1 -148.13) rotate(15.3)" xlink:href="#linear-gradient-8"/><linearGradient id="linear-gradient-15" x1="212.09" y1="69.81" x2="183.78" y2="101.02" xlink:href="#linear-gradient-8"/><linearGradient id="linear-gradient-16" x1="287.74" y1="113.62" x2="282.97" y2="91.67" gradientTransform="matrix(-0.96, -0.26, -0.26, 0.96, 473.09, 62.62)" xlink:href="#linear-gradient-8"/><linearGradient id="linear-gradient-17" x1="188.4" y1="91.23" x2="178.85" y2="47.3" xlink:href="#linear-gradient-8"/><linearGradient id="linear-gradient-18" x1="-321.33" y1="119.28" x2="-305.14" y2="119.28" gradientTransform="matrix(-0.84, -0.54, -0.54, 0.84, -27.18, -158.13)" xlink:href="#linear-gradient"/><linearGradient id="linear-gradient-19" x1="18.48" y1="85.92" x2="162.88" y2="85.92" gradientTransform="matrix(1, 0, 0, 1, 0, 0)" xlink:href="#linear-gradient-2"/><linearGradient id="linear-gradient-28" x1="67.23" y1="153.27" x2="126.93" y2="153.27" gradientTransform="matrix(1, 0, 0, 1, 0, 0)" xlink:href="#linear-gradient-2"/></defs><g id="Layer_2" data-name="Layer 2"><g id="OBJECTS"><g class="cls-1"><text class="cls-2" transform="translate(62.88 116.16)">&amp;</text><path class="cls-3" d="M85.49,120a28.31,28.31,0,0,1-12.12-2.28,16.64,16.64,0,0,1-7.18-6,14.58,14.58,0,0,1-2.36-8,18.07,18.07,0,0,1,2.83-9.42,24.35,24.35,0,0,1,8.47-8.08A33.38,33.38,0,0,1,88.93,82a11.49,11.49,0,0,1-1.8-3.74,14.53,14.53,0,0,1-.6-4,13.87,13.87,0,0,1,2.57-8,21.87,21.87,0,0,1,6.41-5.89,32.46,32.46,0,0,1,8.38-3.66,31.46,31.46,0,0,1,8.43-1.24,19.52,19.52,0,0,1,4.9.64,9.38,9.38,0,0,1,4.21,2.28A6.09,6.09,0,0,1,123.15,63a7,7,0,0,1-1.54,4.47,4.67,4.67,0,0,1-3.79,2,3.9,3.9,0,0,1-2.84-1.2,3.79,3.79,0,0,1-1.2-2.75,4,4,0,0,1,1.16-3,3.94,3.94,0,0,1,2.88-1.16,3.78,3.78,0,0,1,1.76.52,2.72,2.72,0,0,1,1.25,1,4,4,0,0,0,.09-.95A3.36,3.36,0,0,0,119,58.72a9,9,0,0,0-4-.94,23.79,23.79,0,0,0-8,1.67,28.37,28.37,0,0,0-8.86,5.46A23.31,23.31,0,0,0,95,68.53,25.14,25.14,0,0,0,92.2,73.3a12.48,12.48,0,0,0-1.12,5.11,8,8,0,0,0,.69,3.44c.86,0,1.85,0,3-.13s2.27-.13,3.48-.13a5.84,5.84,0,0,1,3.52,1A2.68,2.68,0,0,1,103,84.69a2.1,2.1,0,0,1-1,1.63,5.47,5.47,0,0,1-3.27.78,10.48,10.48,0,0,1-5.11-1.25,15.67,15.67,0,0,1-3.57-2.54,18.11,18.11,0,0,0-9.63,4.22,22.89,22.89,0,0,0-6,8.12A23.13,23.13,0,0,0,72.34,105a16.62,16.62,0,0,0,1.42,6.88A11.73,11.73,0,0,0,78.1,117a13.12,13.12,0,0,0,7.39,1.93A20.83,20.83,0,0,0,94,117.23a22,22,0,0,0,6.58-4.34,21.41,21.41,0,0,0,4.26-5.63,12.39,12.39,0,0,0,1.5-5.55A5,5,0,0,0,104.71,98a9.91,9.91,0,0,0-4.17-2.23A20,20,0,0,0,95,95a22.62,22.62,0,0,0-6,.81,13.65,13.65,0,0,0-5,2.5,6.74,6.74,0,0,0-2.49,4.25,1.89,1.89,0,0,1-.05.39,3,3,0,0,0,0,.39,6.15,6.15,0,0,0,1.42,3.74,13,13,0,0,0,4.43,3.39,1.29,1.29,0,0,1,.77,1.29c0,.64-.28.81-.86.52a20,20,0,0,1-6.92-5.46,9.61,9.61,0,0,1-2.19-5.63q0-3.87,4.17-6.67t11.91-2.79H109.4a20.82,20.82,0,0,0,4.08-.6A34.76,34.76,0,0,0,119,89.38a19.87,19.87,0,0,0,4.85-2.76,4.57,4.57,0,0,0,2-3.65,4.71,4.71,0,0,0-.77-2.41A1,1,0,0,1,125,80c0-.34.14-.51.43-.51a.71.71,0,0,1,.6.43,6.79,6.79,0,0,1,1.29,3.86A6.49,6.49,0,0,1,125.6,88a15.09,15.09,0,0,1-4.51,3.49,24.88,24.88,0,0,1-6.32,2.27,29,29,0,0,1-7.09.69,8.76,8.76,0,0,1,2.4,3.1,8.62,8.62,0,0,1,.78,3.61,13.05,13.05,0,0,1-1.89,6.49,22.24,22.24,0,0,1-5.33,6.11A28.55,28.55,0,0,1,85.49,120ZM98.73,85.64c1.9,0,2.84-.38,2.84-1.12,0-.29-.24-.59-.73-.9a3.93,3.93,0,0,0-1.93-.56A11.42,11.42,0,0,0,97.19,83H92.46A7.57,7.57,0,0,0,98.73,85.64Z"/></g><path class="cls-4" d="M151.56,9.18a16.09,16.09,0,0,0,.62,5.18c.81,3,2.21,6.92,3.16,9.46a29.15,29.15,0,0,0,3.92,7.23,25.43,25.43,0,0,0,7.3,6.38c2.58,1.47,4.28,2.28,5.3,1.42s2.75-6.26,2.92-8.87a27.61,27.61,0,0,0-1-9.89,50.62,50.62,0,0,0-4-9.34c-2-3.5-4.66-6.91-5.61-6.79S163,6.6,163,6.6s-1.17-2.22-3-2.42a10.4,10.4,0,0,0-4.25.35c-1.21.34-2.13,1.57-1.94,3.86,0,0,0,.39-.32.33S152.15,8.06,151.56,9.18Z"/><path class="cls-5" d="M154.21,12.27c0-.12-.2-.08-.18,0a51.21,51.21,0,0,0,1.31,6,.07.07,0,0,0,.14,0A61.48,61.48,0,0,1,154.21,12.27Z"/><path class="cls-6" d="M151.83,14a64,64,0,0,0,5.1,14,23.24,23.24,0,0,0,6.75,7.81,22.83,22.83,0,0,0,4.95,3.09,4.9,4.9,0,0,1,1.43.91,5.66,5.66,0,0,0,.54.43l0,0a8.39,8.39,0,0,1,2.66,3.36,68.06,68.06,0,0,1,2.55,6.82c1,3.22,1.72,6.49,2.44,9.77l1.1-.13c-1.43-6.37-3-12.65-5.86-18.53h0a7,7,0,0,1-.17-1.51,19.37,19.37,0,0,0,.06-2.06,5.48,5.48,0,0,1,.29-2.2v0a24,24,0,0,0,1.15-4.08,27.38,27.38,0,0,0-1.06-12.45,41.79,41.79,0,0,0-4.9-10.46,35.17,35.17,0,0,0-2.51-3.44c-.68-.83-1.66-2.21-2.88-1.5-.72.43-.6,1.22-.75,2l0,.13a4.28,4.28,0,0,0-1.52-1.47A6.31,6.31,0,0,0,157.56,4c-1.09.09-2.37-.15-3.16.76a5.6,5.6,0,0,0-.88,3.53c-.91-.3-1.81-.32-2.14.77C150.92,10.56,151.49,12.49,151.83,14Zm.11-3A3.81,3.81,0,0,1,152,9.13c.43-.88,2.81.38,3.37.74a1.16,1.16,0,0,1,.21.16,39.09,39.09,0,0,0,1.08,6.71c0,.09.16.07.14,0a35.22,35.22,0,0,1-1-6.47c.8.8,1.13,2,1.89,2.83a6.65,6.65,0,0,0,1.42,1.18,41.92,41.92,0,0,0,1.35,4.69c0,.09.17.06.15,0-.47-1.48-.81-3-1.22-4.49.34.19.7.38,1.07.55,2.52,1.13,3.91,4.29,5.06,6.68a83.31,83.31,0,0,1,5.54,16.61,59.16,59.16,0,0,1-4.87-7.93c-1.68-3-3.19-6-4.77-9a.11.11,0,0,0-.2.11c1.46,3.24,3.2,6.37,5,9.46,1.51,2.63,3,5.56,5,7.86l.06.25a6.53,6.53,0,0,1-1.07-.21A45.36,45.36,0,0,1,163,30.15a79.37,79.37,0,0,1-5.27-10.76c0-.12-.23,0-.18.09,2.78,7.05,6.39,14.09,12.18,19.14a12.91,12.91,0,0,1-2.27-1,54.61,54.61,0,0,1-10.08-15.27c-.06-.13-.24,0-.19.09a46.5,46.5,0,0,0,9.55,14.75c-.71-.45-1.4-.94-2.05-1.41a23.25,23.25,0,0,1-6.24-6.42,54.85,54.85,0,0,1-5.31-13.06A27.78,27.78,0,0,1,151.94,10.94Zm17.58,6.16A49.67,49.67,0,0,1,172,27.59a57,57,0,0,1-.07,10.77l-.1.18v0a46.58,46.58,0,0,0-6.36-23.93c-.07-.13-.29,0-.21.11a50,50,0,0,1,6.34,22.87,76.34,76.34,0,0,0-5.33-16,36.15,36.15,0,0,0-2-3.67,13.88,13.88,0,0,0-1.62-2.28,9.31,9.31,0,0,1-.21-5.65c.64,1,1.24,1.91,1.78,2.92a.09.09,0,0,0,.16-.08,14.18,14.18,0,0,0-1.86-3.16c.21-.89.45-1.76.66-2.64.06-.21.09-.59.15-1a26.09,26.09,0,0,1,4.18,7.23c0,.08.16,0,.13-.06a25.55,25.55,0,0,0-4.27-7.45,2.79,2.79,0,0,1,.4-1.28c1.08-1.18,5,5.32,5.45,6,3.55,6,6,13.2,5.1,20.25a20.43,20.43,0,0,1-1.08,4.22c-.3.89-.6,1.92-1,2.86A42.49,42.49,0,0,0,169.72,17C169.68,16.91,169.48,17,169.52,17.1Zm-7-10.29c-.23.94-.48,1.88-.69,2.84a10.1,10.1,0,0,0-.05,5.26l-.29-.17c-1.63-.84-3-1.23-4-3-.69-1.24-1-2.11-2.39-2.78-.28-.14-.62-.31-1-.47a8.3,8.3,0,0,1,.34-2.43,4.61,4.61,0,0,0,.61,2.21c.06.08.22,0,.19-.07a6.51,6.51,0,0,1-.54-2.57.15.15,0,0,0,0-.1,2.11,2.11,0,0,1,1.49-.82c.59,2.09,1.25,4.17,2,6.19,0,.09.18,0,.16,0-.71-2-1.37-4.09-1.93-6.18.41,0,.83-.07,1.2-.09v0a7.38,7.38,0,0,0,.58,1.85c.29.8.57,1.6.9,2.38,0,.08.18,0,.16,0-.23-.69-.48-1.37-.73-2a10,10,0,0,1-.68-2.18,10.63,10.63,0,0,1,1.26-.06l0,0a6.22,6.22,0,0,1,.91,1.91c0,.1.18.07.16,0a6.24,6.24,0,0,0-.82-1.91,3.22,3.22,0,0,1,1.45.4A4.77,4.77,0,0,1,162.52,6.81Z"/><path class="cls-7" d="M204,85.27h0c-.87,2-3.21,13-11.48,21.6-5.42,5.6-12.11,9.92-17.08,15.93,1-7.92,3.49-14.49,10.15-22.28C190.74,94.46,197.49,89.94,204,85.27Z"/><path class="cls-8" d="M0,82.54H0c.51,2.1.84,13.4,7.45,23.29,4.34,6.49,10.15,11.93,14,18.73.44-8-.86-14.88-6-23.74C11.38,93.93,5.55,88.29,0,82.54Z"/><path class="cls-9" d="M182.09,16.38h0c.39,2.12,4.68,12.59,2.66,24.31-1.33,7.69-4.43,15-5.16,22.79-3.64-7.11-5.26-13.94-4.15-24.13C176.32,31.42,179.35,23.89,182.09,16.38Z"/><path class="cls-10" d="M183,126.09h0c-1,1-5,7-11.9,10.07-4.54,2-9.52,3-13.89,5.39,2.46-4.46,5.5-7.75,11.28-10.79C173,128.39,178.06,127.31,183,126.09Z"/><path class="cls-11" d="M184.4,82.46c.06,1.39.1,2.79.1,4.2h0a85.68,85.68,0,0,1-85.67,85.67h0A85.67,85.67,0,0,1,13.17,86.66h0A85.66,85.66,0,0,1,98.83,1h0a85.64,85.64,0,0,1,76.3,46.68"/><path class="cls-12" d="M20.91,113.56a82.29,82.29,0,0,1-4.49-26.9h0A82.41,82.41,0,0,1,98.83,4.25h0a82.35,82.35,0,0,1,70.56,39.81"/><path class="cls-13" d="M164.55,136.39a82.28,82.28,0,0,1-65.72,32.68h0A82.11,82.11,0,0,1,43,147.31"/><path class="cls-14" d="M187.85,95.44a46.64,46.64,0,0,0,9.61-5,77.68,77.68,0,0,0,12.37-10c3.16-3.12,11.94-12.24,11.94-12.24s-6,.58-10.1,1.12-12.45,4.72-18.1,13S187.85,95.44,187.85,95.44Z"/><path class="cls-14" d="M190.81,109.63s5.64-9,14-14,14.92-7.25,17.47-9.27a46.53,46.53,0,0,1-3.2,4.59C217.1,93.47,207.3,107.77,190.81,109.63Z"/><path class="cls-14" d="M180.68,121.24a21.94,21.94,0,0,1,10.43-5.47,31,31,0,0,1,7.52-1.48,44,44,0,0,0,6.69-.73s-6,4.74-10.45,6.75S183.92,123,180.68,121.24Z"/><path class="cls-15" d="M221.33,86.36c-.15-.12-.8.36-1,.48a61.54,61.54,0,0,1-10.51,5.9,56.22,56.22,0,0,0-9,4.67,48.06,48.06,0,0,0-14.29,15.17.19.19,0,0,0,0,.12,73.15,73.15,0,0,0-9,9.79l-1.49,3.6c.63-.92,1.31-1.89,1.73-2.47a21.64,21.64,0,0,0,12.84-.41,22.43,22.43,0,0,0,5.86-3c2.45-1.73,4.58-3.87,7.29-5.25a3.84,3.84,0,0,0,1-.66c0-.14-1,0-1.25,0-5.21.91-10.6,1.38-15.73,2.68a23.08,23.08,0,0,0-7.89,3.76,73.31,73.31,0,0,1,7-7.64l.12,0c5-2.73,10.7-3.5,15.56-6.56,7.76-4.86,12.55-12.1,18.15-19.15C220.92,87.23,221.49,86.48,221.33,86.36Z"/><path class="cls-4" d="M189.51,117.55c3.75-.76,7.55-1.33,11.35-1.93-3.08,2-5.7,4.71-9.16,6.14a23.85,23.85,0,0,1-13.42,1.16l0-.06A26,26,0,0,1,189.51,117.55Z"/><path class="cls-4" d="M211.72,97.44a41.85,41.85,0,0,1-10.82,9.14c-3.65,2.23-8,3-11.89,4.71a78.33,78.33,0,0,1,7.83-6c3.24-2.17,6.77-4.15,9.93-6.42.32-.24.61-.71-.29-.22a104.56,104.56,0,0,0-17.89,12.21c3.78-5.1,7.93-9.78,13.36-13.28,3.25-2.1,6.85-3.42,10.33-5.09A58.53,58.53,0,0,0,218.52,89C216.28,91.84,214,94.67,211.72,97.44Z"/><path class="cls-16" d="M21.22,93.5c-.16.1.05.88.09,1.09a61.65,61.65,0,0,1,1.67,12,56.62,56.62,0,0,0,1.09,10.06A48,48,0,0,0,33,135.43a.23.23,0,0,0,.09.08,73.47,73.47,0,0,0,5.85,12l2.81,2.69c-.63-.91-1.29-1.9-1.68-2.5a21.65,21.65,0,0,0,4.29-12.12,22.16,22.16,0,0,0-.62-6.53c-.72-2.9-1.94-5.67-2.24-8.7a3.51,3.51,0,0,0-.25-1.19c-.13,0-.36.88-.41,1.17-1,5.19-2.57,10.38-3.22,15.63a23,23,0,0,0,.63,8.71,73.78,73.78,0,0,1-4.56-9.32.5.5,0,0,0,0-.12c-.74-5.62.63-11.25-.45-16.89-1.71-9-6.71-16.09-11.24-23.86C21.88,94.2,21.39,93.4,21.22,93.5Z"/><path class="cls-4" d="M38.7,134.49c.66-3.78,1.51-7.52,2.33-11.28.74,3.6,2.31,7,2.39,10.77a23.8,23.8,0,0,1-3.81,12.92l0-.06A25.85,25.85,0,0,1,38.7,134.49Z"/><path class="cls-4" d="M28.05,106.48a41.57,41.57,0,0,1,4.57,13.4c.75,4.22-.11,8.54.07,12.79A77.46,77.46,0,0,1,30,123.21c-.85-3.82-1.41-7.83-2.38-11.6-.1-.38-.43-.82-.3.2a104.58,104.58,0,0,0,4.86,21.1c-3.37-5.38-6.22-10.94-7.51-17.27-.77-3.8-.69-7.63-1-11.48a58.39,58.39,0,0,0-1-7.09C24.49,100.19,26.3,103.33,28.05,106.48Z"/><path class="cls-17" d="M165.89,138.39a4.3,4.3,0,0,0,.57-2.14,21.53,21.53,0,0,1-.62-12.83,22.34,22.34,0,0,1,2.47-6.08c1.53-2.58,3.49-4.88,4.64-7.69a3.84,3.84,0,0,1,.58-1.08c.14,0,.09,1,.06,1.25-.49,5.27-.52,10.68-1.4,15.89a23,23,0,0,1-3.11,8.17s-1,1.54-1.64,2.53C167.17,136.82,165.89,138.39,165.89,138.39Z"/><path class="cls-4" d="M167.17,135.61l0,0a23.75,23.75,0,0,1,.07-13.47c1.15-3.57,3.64-6.39,5.37-9.62-.28,3.83-.55,7.66-1,11.47A25.92,25.92,0,0,1,167.17,135.61Z"/><path class="cls-18" d="M26.61,134.25A4.27,4.27,0,0,0,24.8,133a21.56,21.56,0,0,1-12.28-3.79,22.13,22.13,0,0,1-4.87-4.4c-1.9-2.31-3.4-4.94-5.65-7a3.85,3.85,0,0,1-.81-.91c.06-.12.93.24,1.19.36,4.78,2.26,9.86,4.13,14.46,6.74a23.16,23.16,0,0,1,6.62,5.71s1.12,1.45,1.82,2.4C25.57,132.51,26.61,134.25,26.61,134.25Z"/><path class="cls-4" d="M24.44,132.1l0,.06a23.73,23.73,0,0,1-12.63-4.65c-3-2.3-4.77-5.61-7.22-8.34,3.51,1.58,7,3.13,10.45,4.85A26,26,0,0,1,24.44,132.1Z"/><path class="cls-19" d="M185.53,99.25s-1.17,2.24-1.59,3.13c-.28.6-.57,1.22-.84,1.84l-.09,2.47a45,45,0,0,1,2.38-5.24l.8-1.49c6.95-3,13.12-8.08,18.44-13.38s10-11.19,15.07-16.75c.21-.24.77-.79.64-1s-.85.1-1.16.21c-3.87,1.46-8.22,1.46-12.13,2.89a32.6,32.6,0,0,0-9.42,5.48C191.07,82.9,187.06,90.91,185.53,99.25Z"/><path class="cls-4" d="M209.56,72.17c2.61-.7,5.36-.78,7.95-1.48C213,75.48,209,80.77,204.32,85.48a72,72,0,0,1-17.3,13,54.88,54.88,0,0,1,3.07-4.7,49.64,49.64,0,0,1,5.85-7.22,54.06,54.06,0,0,1,7-5.76c.79-.53.23-.46-.21-.22-5.45,3-10.15,8-13.67,13-.8,1.13-1.55,2.29-2.26,3.47,2.42-7.47,5.62-14.35,12-19.42A29.83,29.83,0,0,1,209.56,72.17Z"/><path class="cls-20" d="M176.32,77.62a24.64,24.64,0,0,0-6.07-5.54c-2.66-1.67-5.87-2.37-8.49-4.07-.21-.13-.72-.42-.82-.33s.2.61.32.82c2.85,4.91,5.36,10,8.44,14.75s6.82,9.48,11.47,12.81c.12.41.23.81.35,1.23a34.1,34.1,0,0,1,.93,4.24l.32-1.83c-.1-.51-.21-1-.33-1.49-.16-.72-.67-2.56-.67-2.57A27.85,27.85,0,0,0,176.32,77.62Z"/><path class="cls-4" d="M175.43,77.61c3.9,4.76,5.17,10.34,5.76,16.23-.33-1-.7-2-1.11-2.92-1.8-4.25-4.46-8.72-8-11.77-.29-.24-.69-.38-.19.13a41.37,41.37,0,0,1,4.23,5.36,37.91,37.91,0,0,1,3.17,6.26,40.31,40.31,0,0,1,1.51,4A54.53,54.53,0,0,1,170.1,82.49c-2.68-4.21-4.77-8.74-7.37-13,1.8.93,3.82,1.43,5.63,2.36A22.42,22.42,0,0,1,175.43,77.61Z"/><path class="cls-21" d="M182.17,81.56a5.09,5.09,0,0,1,1.3,2.6l2,1.15a5.87,5.87,0,0,1,1.74-2.93,4.84,4.84,0,0,0,1.05-2.77,21.89,21.89,0,0,0,6.51-4.3A47.31,47.31,0,0,0,204.53,63a37.93,37.93,0,0,0,3-6.7c.66-2,1.52-4.73.91-6.86-.53-1.82-1.87-1.43-2.91-.26A33.49,33.49,0,0,1,203,51.49a9,9,0,0,0-.48-5.4c-.29-.72-.71-1.89-1.48-2.26-.93-.44-3.12.24-4.08.48-1.3.33-1.93,1.17-3,1.82-1.81,1-3.81.14-5.71,0-2.61-.21-5.2.17-7,2.22a23.26,23.26,0,0,0-2.78-1,7.3,7.3,0,0,0-4.89.52c-1.18.44-2.23.94-3.44.31-.64-.32-1-.93-1.8-1-1.34-.16-2.11,1.24-2.61,2.28a.17.17,0,0,1,0,.07,2.48,2.48,0,0,0-1.74-.36,3.65,3.65,0,0,0-1.13.57,4.91,4.91,0,0,1-2.2.89c-1.46.28-1.89,2.15-1.72,3.57a8.45,8.45,0,0,0-6.82.57.56.56,0,0,0-.31.59v0a.64.64,0,0,0,0,.09c-.18,5.15,4.76,10.59,8.19,13.84a40.92,40.92,0,0,0,21.15,10.53A5.88,5.88,0,0,0,182.17,81.56Z"/><path class="cls-4" d="M203.46,52.37a30.87,30.87,0,0,1,2.42-2.19c2.22-1.44,1.7,1.06,1.46,2.35a22.86,22.86,0,0,1-.79,3.11,41.74,41.74,0,0,1-5.33,10.53,53.86,53.86,0,0,0,4.25-11.84c0-.15-.21-.25-.25-.09a66.25,66.25,0,0,1-6.43,15.25,34.14,34.14,0,0,1-7.28,7.17c.52-.49,1-1,1.49-1.54,0,0,0,0,.05-.05s0,0,0,0a31.66,31.66,0,0,0,2.62-3.48,31.55,31.55,0,0,0,5.47-9.79c.91-2.4,2-5.2,2-7.79,0-.18-.29-.22-.29,0-.07,2.46-1.11,5.16-2,7.47A35.37,35.37,0,0,1,197.75,68c.31-.57.59-1.14.84-1.68a24.25,24.25,0,0,0,2.31-10.41A7.28,7.28,0,0,1,203.46,52.37Z"/><path class="cls-4" d="M189.6,47.26c1.53.27,3,.81,4.5,0,1.2-.65,1.94-1.67,3.33-2,1.23-.25,2.87-.61,3.74.43,1.51,1.83,1,5,.5,7.13a7.43,7.43,0,0,0-.85,1.17,17.6,17.6,0,0,0-1-5.1c-.47-1.18-1.41-1.4-2.67-1.25-1.71.2-3.19,1.24-4.77,1.86a10.47,10.47,0,0,1-4.5.62,12.2,12.2,0,0,1-.15-2c0-.19-.28-.22-.29,0a6.53,6.53,0,0,0,.12,2,16.14,16.14,0,0,1-3.36-.67,20,20,0,0,1-2.19-.82C184.13,46.67,186.88,46.76,189.6,47.26Z"/><path class="cls-4" d="M159.9,52.28c.36-1,.89-.75,1.69-.91,1.49-.3,2.15-1.76,3.7-1a11.06,11.06,0,0,0-.59,2.76,12.3,12.3,0,0,1-.5-1.7.13.13,0,0,0-.26.06,9.7,9.7,0,0,0,.64,2.13.18.18,0,0,0,.06.08,15.94,15.94,0,0,0,.24,3.44,20.53,20.53,0,0,1-2.15-4.72.12.12,0,1,0-.23.05,16,16,0,0,0,2.05,4.65,24.34,24.34,0,0,0-4.9-2.75A5.22,5.22,0,0,1,159.9,52.28Z"/><path class="cls-4" d="M154.14,55a7.38,7.38,0,0,1,3.4-.26c2.75.45,5.06,2.43,7.46,3.71a.31.31,0,0,0,.15,0,26.25,26.25,0,0,0,.85,2.91c.08.21.16.44.24.66-.72-.69-1.44-1.38-2.14-2.11-.12-.12-.32,0-.2.17a31.31,31.31,0,0,0,2.62,2.66c.34.87.7,1.75,1.1,2.61a36.21,36.21,0,0,1-7.64-8c-.09-.15-.29,0-.2.16a29.35,29.35,0,0,0,8.2,8.63,33.06,33.06,0,0,0,3.86,6.2,14.14,14.14,0,0,0-2.06-1,13.39,13.39,0,0,0-1.84-.55c-.44-.33-.85-.69-1.27-1-1-.75-1.93-1.48-2.92-2.21-.13-.09-.26.11-.14.2,1.19.93,2.36,1.86,3.56,2.78a.15.15,0,0,0,.06,0,6.85,6.85,0,0,1-3.76-1.78c-1.31-1.42-1.13-3.45-2-5.1a3.37,3.37,0,0,0-.3-.49,37.21,37.21,0,0,0,7.62,6.41c.16.11.32-.13.18-.25A57,57,0,0,1,157.24,58c-.09-.13-.29,0-.19.16a53.19,53.19,0,0,0,3.62,4.53,7.26,7.26,0,0,0-2.16-1.14,8.35,8.35,0,0,1-5.06-4.43C152.86,55.77,152.8,55.41,154.14,55Z"/><path class="cls-4" d="M160.34,68.53c-2.7-2.56-5.92-6.11-7.33-10a8.81,8.81,0,0,0,3.19,3.14c1.91,1.1,4,1.13,4.76,3.57a15.17,15.17,0,0,0,1.17,3.6c1.64,2.63,5,2.39,7.56,3.51,2.8,1.25,5,3.57,7.73,5.06a18.05,18.05,0,0,0,1.59.91A40.49,40.49,0,0,1,160.34,68.53Z"/><path class="cls-4" d="M175.1,74.3c-3.76-5-5.65-12-6.14-17.91,0-.14-.25-.1-.24.06a36.33,36.33,0,0,0,2.7,11.62,36.82,36.82,0,0,0,2.44,5l-.11-.09a29.54,29.54,0,0,1-5.3-8.44c-1.58-3.65-3.17-7.7-2.6-11.75A8.12,8.12,0,0,1,167,49.29c.35-.44,1-1.13,1.71-1,.28.06.64.54.91.67a2.92,2.92,0,0,0,.36.17,5.58,5.58,0,0,0-.31,1.25.16.16,0,0,0,.31.07c.11-.4.17-.81.29-1.23a3.79,3.79,0,0,0,2.11,0c1.71-.44,3.07-1.42,4.93-1.24l.7.11A20.62,20.62,0,0,0,179,53c.06.16.3,0,.24-.12a30.6,30.6,0,0,1-.95-4.74A49.81,49.81,0,0,1,183,50,17.91,17.91,0,0,0,188.67,51c.17.74.34,1.47.56,2.19.05.18.32.14.28,0-.15-.73-.34-1.45-.54-2.17a10.82,10.82,0,0,0,3.09-.47c1.28-.42,2.43-1.15,3.69-1.62a10.55,10.55,0,0,0,.52,1.79c0,.17.3.08.27-.08a8.46,8.46,0,0,0-.46-1.83c1-.35,2.2-.57,2.86.42a9,9,0,0,1,.62,3,23.37,23.37,0,0,1-1.32,12.13,37,37,0,0,1-3,6c1.91-5.56,2.06-11.77,1.49-17.54,0-.16-.25-.11-.24,0,.52,6.71,0,13.16-2.47,19.31a25.32,25.32,0,0,1-3.11,3.61c3.25-7.15,2.94-15.63,1.87-23.25,0-.17-.28-.12-.26,0,1,8.3.83,16.24-2.41,23.93a13.71,13.71,0,0,1-1.44,1.1A16.16,16.16,0,0,0,190,71.76a50.28,50.28,0,0,0,0-10c0-.16-.25-.11-.24,0a53.68,53.68,0,0,1-.08,9.23c-.13,1.35-.3,2.71-.55,4A8.74,8.74,0,0,1,188,78a13.73,13.73,0,0,1-1.62.83,26.12,26.12,0,0,0,.94-10.32,63.31,63.31,0,0,0-2-13.2c-.06-.17-.32-.13-.27,0a63.84,63.84,0,0,1,1.82,11.75c.34,4.16.37,8-.86,11.9-.32.12-.63.22-1,.31-.5-8.43-3-17-5.27-25.08-.05-.15-.29-.1-.25,0a237.71,237.71,0,0,1,5.2,25.15h0l-1.39-.52c-1.27-4.47-2.74-8.9-4.08-13.35-1.29-4.3-3.11-8.75-3.68-13.21a.13.13,0,0,0-.25,0c.45,4.59,2.36,9.23,3.69,13.64,1.27,4.24,2.47,8.54,3.9,12.72-.57-.21-1.14-.45-1.68-.69-4.48-7-8.17-14.46-9-22.87,0-.16-.25-.11-.24,0,.65,8.18,4.13,15.75,8.59,22.55A22.83,22.83,0,0,1,175.1,74.3Z"/><path class="cls-22" d="M173.24,95.44h0c-.32,1.34-3.38,7.86-2.48,15.39.6,4.94,2.34,9.71,2.56,14.67,2.54-4.4,3.79-8.71,3.41-15.23C176.43,105.2,174.74,100.31,173.24,95.44Z"/><text class="cls-23" transform="translate(35.04 63.92)">Aditya<tspan x="-20.63" y="75.51" xml:space="preserve">      Dea</tspan></text><path class="cls-24" d="M58.34,66.66a2.74,2.74,0,0,1-2.65-1.48,7.24,7.24,0,0,1-.77-3.44,12.36,12.36,0,0,1,.49-3.46,8.21,8.21,0,0,1,1.17-2.61c-.77.91-1.72,1.95-2.86,3.12A40,40,0,0,1,50,62.17a23.64,23.64,0,0,1-4.23,2.69,9.83,9.83,0,0,1-4.32,1.07,7.47,7.47,0,0,1-1.26-.11,5.33,5.33,0,0,1-1.22-.36,4.32,4.32,0,0,1-2.35-2.29,9.16,9.16,0,0,1-.77-4A18.61,18.61,0,0,1,36.64,54a28.7,28.7,0,0,1,2.46-5.71,31.19,31.19,0,0,1,1.73-2.8,27.84,27.84,0,0,1,2.07-2.63,15.68,15.68,0,0,1-2.43-1.34,9.23,9.23,0,0,1-1.88-1.65,4,4,0,0,1-.77-1.41,5.27,5.27,0,0,1-.26-1.58,2,2,0,0,1,.64-1.8.64.64,0,0,1,.52-.34c.25,0,.38.16.38.47a1.46,1.46,0,0,1-.17.64,3,3,0,0,0-.21,1,2.38,2.38,0,0,0,.34,1.26,6.55,6.55,0,0,0,.81,1.09,10.33,10.33,0,0,0,3.76,2.69,48.66,48.66,0,0,1,6-5.53,29.36,29.36,0,0,1,7-4.08,20.61,20.61,0,0,1,7.91-1.54A8.7,8.7,0,0,1,70,32.26a4.74,4.74,0,0,1,2,3.92,5.51,5.51,0,0,1-.68,2.5,8.54,8.54,0,0,1-2.22,2.6A13.61,13.61,0,0,1,65,43.46a25.21,25.21,0,0,1-6.3,1.27c-.88.08-1.68.15-2.37.19s-1.45.06-2.25.06a29.89,29.89,0,0,1-4.29-.3,26.19,26.19,0,0,1-4.13-.94c-.51.72-1.16,1.68-1.94,2.91s-1.56,2.54-2.33,3.93a39.77,39.77,0,0,0-1.93,4,24.39,24.39,0,0,0-1,3.27,11.7,11.7,0,0,0-.35,2.63,4.43,4.43,0,0,0,1,3.14,3.45,3.45,0,0,0,2.65,1.05,9.29,9.29,0,0,0,3.7-.94,19.55,19.55,0,0,0,4.33-2.83,43.66,43.66,0,0,0,4.43-4.23,54.16,54.16,0,0,0,3.95-4.79A38.84,38.84,0,0,0,61,47.38a6.49,6.49,0,0,1,1.41-2,2,2,0,0,1,1.16-.58.84.84,0,0,1,.72.37,1.63,1.63,0,0,1,.26,1,3.61,3.61,0,0,1-1.07,2.39,21.19,21.19,0,0,0-2.35,3.25,30.85,30.85,0,0,0-2,4.06,20.89,20.89,0,0,0-1.29,4.19c-.08.46-.14.89-.17,1.28s0,.76,0,1.07a4,4,0,0,0,.49,2.27,1.54,1.54,0,0,0,1.31.68,4.16,4.16,0,0,0,2.26-.89,12.09,12.09,0,0,0,2.48-2.4c.68-.91,1.35-1.88,2-2.91A34,34,0,0,0,67.91,56a1,1,0,0,1,.37-.45.75.75,0,0,1,.32-.15c.14,0,.21.09.21.26a1.55,1.55,0,0,1-.13.51c-.25.57-.6,1.25-1,2s-.9,1.62-1.41,2.46-1,1.62-1.59,2.33a11.16,11.16,0,0,1-2.8,2.56A6.32,6.32,0,0,1,58.34,66.66ZM53.68,44c1.48,0,3.13-.09,5-.26a20,20,0,0,0,6.15-1.41,10.32,10.32,0,0,0,4-2.82,5.84,5.84,0,0,0,1.41-3.81,3.17,3.17,0,0,0-1.56-2.86,7.25,7.25,0,0,0-4-1,16.63,16.63,0,0,0-7.25,1.56,23.83,23.83,0,0,0-6,4.08,60.47,60.47,0,0,0-5.16,5.43A23.6,23.6,0,0,0,53.68,44Z"/><path class="cls-24" d="M77.49,63.92a2.29,2.29,0,0,1-1.93-1.15,3.86,3.86,0,0,1-.38-.9A4,4,0,0,1,75,60.63a7.09,7.09,0,0,1,0-.79,5.44,5.44,0,0,1,.17-.84c-.4.63-.86,1.32-1.39,2.08A9.9,9.9,0,0,1,72,63a3.42,3.42,0,0,1-2.25.84,3.61,3.61,0,0,1-.89-.13,2.69,2.69,0,0,1-1.65-1.2,4,4,0,0,1-.49-2,9.37,9.37,0,0,1,.53-2.91,18.69,18.69,0,0,1,1.37-3.08A16.75,16.75,0,0,1,70.39,52a10.18,10.18,0,0,1,3-2.39,7,7,0,0,1,3.38-.9,5.66,5.66,0,0,1,2.91.81c.42-.8.88-1.69,1.36-2.67s1-2,1.46-2.93.91-1.86,1.28-2.67l.85-1.86a4.68,4.68,0,0,1,1.22-1.9A2.38,2.38,0,0,1,87.19,37a6,6,0,0,1,1,.11,4.32,4.32,0,0,0,1.13.06,12.08,12.08,0,0,0-1.05,1.48c-.52.81-1.14,1.84-1.85,3.1S85,44.41,84.18,45.9s-1.61,3-2.4,4.53-1.51,3-2.18,4.32-1.2,2.52-1.6,3.48a11.67,11.67,0,0,0-.49,1.39,6.52,6.52,0,0,0-.32,1.82,1.76,1.76,0,0,0,.25,1,1,1,0,0,0,.86.41A2.4,2.4,0,0,0,80,62a11.41,11.41,0,0,0,1.6-2c.51-.81,1-1.61,1.37-2.39s.69-1.4.89-1.86.32-.47.52-.47.25.13.25.38v.15a.52.52,0,0,1-.08.24q-.39.9-1,2.22a22.88,22.88,0,0,1-1.56,2.65,9.52,9.52,0,0,1-2,2.2A3.76,3.76,0,0,1,77.49,63.92Zm-7.4-1.28a2.72,2.72,0,0,0,1.5-.67,9,9,0,0,0,1.92-2.11q1.2-1.71,2.74-4.28c1-1.71,2-3.52,3-5.43A1.84,1.84,0,0,0,78,49.64a4.59,4.59,0,0,0-2.67,1.11,16.84,16.84,0,0,0-2.86,2.82A21.28,21.28,0,0,0,70.14,57a10.59,10.59,0,0,0-.92,2.18,6.18,6.18,0,0,0-.28,1.71C68.94,62.07,69.32,62.64,70.09,62.64Z"/><path class="cls-24" d="M85.14,63.92A2.51,2.51,0,0,1,82.92,63a3.6,3.6,0,0,1-.65-2.12,5.9,5.9,0,0,1,.15-1.3,8,8,0,0,1,.37-1.22l2.86-7.31a1.67,1.67,0,0,0,.13-.6,1.31,1.31,0,0,0-.21-.74l-.3-.45,2.35-.09a1.47,1.47,0,0,1,.92.15.57.57,0,0,1,.28.45,2.91,2.91,0,0,1-.3.94L85,59.05a9.77,9.77,0,0,0-.51,1.24q-.13.63-.18.81c0,.11,0,.18,0,.21v.34a1.52,1.52,0,0,0,.28.94,1.09,1.09,0,0,0,1,.39,2.39,2.39,0,0,0,1-.26,2.91,2.91,0,0,0,.82-.51,15.33,15.33,0,0,0,2.11-2.93c.7-1.21,1.35-2.41,2-3.61.11-.29.25-.43.42-.43s.22.1.22.3a1.45,1.45,0,0,1-.13.51c-.28.6-.64,1.34-1.07,2.23a21.45,21.45,0,0,1-1.52,2.63,9.8,9.8,0,0,1-1.9,2.15A3.34,3.34,0,0,1,85.14,63.92ZM88.6,46.56a1.35,1.35,0,0,1-1-.45,1.54,1.54,0,0,1-.4-1.08,1.87,1.87,0,0,1,.64-1.42A2.06,2.06,0,0,1,89.2,43a1.5,1.5,0,0,1,1.11.42,1.4,1.4,0,0,1,.43,1,2,2,0,0,1-.64,1.45A2.05,2.05,0,0,1,88.6,46.56Z"/><path class="cls-24" d="M93.43,63.92a3.17,3.17,0,0,1-2.14-.83,3.38,3.38,0,0,1-.94-2.63A14.38,14.38,0,0,1,90.89,57c.35-1.38.8-2.82,1.32-4.31s1.05-2.86,1.56-4.09H91.51q-.3,0-.3-.42a.66.66,0,0,1,.11-.39.35.35,0,0,1,.32-.17H94.2c.49-1.08,1-2.14,1.54-3.16s1.07-2,1.58-2.91A8.83,8.83,0,0,1,99.42,39a3.42,3.42,0,0,1,1.92-.85,1.36,1.36,0,0,1,1.07.49,2.23,2.23,0,0,1,.43,1.48,7.46,7.46,0,0,1-.26,1.64,11.22,11.22,0,0,1-.81,2.2l-.84,1.71c-.35.74-.7,1.4-1,2h2c.2,0,.3.14.3.43a.87.87,0,0,1-.09.36.26.26,0,0,1-.25.19H99.37a30.61,30.61,0,0,1-2.43,3.59,31.51,31.51,0,0,1-3.25,3.51c-.09.26-.19.63-.32,1.11s-.24,1-.34,1.48-.23,1.09-.37,1.77a4.92,4.92,0,0,0-.13,1,1.75,1.75,0,0,0,.43,1.3,1.4,1.4,0,0,0,1,.41,2.37,2.37,0,0,0,.69-.11,2.92,2.92,0,0,0,.77-.41A9.9,9.9,0,0,0,98,59.35c.75-1.23,1.41-2.41,2-3.55.18-.34.35-.52.52-.52s.17.09.17.26a1.52,1.52,0,0,1-.13.47c-.63,1.31-1.15,2.37-1.58,3.16a14.87,14.87,0,0,1-1.24,2,12.58,12.58,0,0,1-1.41,1.56,4,4,0,0,1-1.37.9A4.22,4.22,0,0,1,93.43,63.92ZM94,54.3a29.14,29.14,0,0,0,2.33-2.73c.73-1,1.4-2,2-3h-2c-.45,1.06-.88,2.08-1.28,3.08Zm2.78-6.71H99c.4-.74.77-1.47,1.13-2.18s.68-1.42,1-2.14a10.26,10.26,0,0,0,.52-1.54,6,6,0,0,0,.21-1.32c0-.43-.1-.64-.3-.64a1.16,1.16,0,0,0-.62.36,7.46,7.46,0,0,0-1,1.22,15,15,0,0,0-1.52,2.76Z"/><path class="cls-24" d="M94.16,77.56A4.64,4.64,0,0,1,91,76.68a2.77,2.77,0,0,1-.94-2.07,3.32,3.32,0,0,1,.17-1.11c.12-.32.29-.72.52-1.2a6.31,6.31,0,0,1,1.67-2.14,9.78,9.78,0,0,1,2.3-1.45A25.34,25.34,0,0,1,99.78,67q2.84-.65,5.45-1.41a22.69,22.69,0,0,0,1.5-3.23c.45-1.21.87-2.39,1.24-3.55s.67-2.1.89-2.84c-.34.63-.77,1.39-1.3,2.29a27.5,27.5,0,0,1-1.77,2.63,11.56,11.56,0,0,1-2.12,2.13,3.85,3.85,0,0,1-2.37.86,3.91,3.91,0,0,1-1.14-.21,2.36,2.36,0,0,1-1.64-2.53A4.71,4.71,0,0,1,99.05,59c.36-.7.69-1.38,1-2a.52.52,0,0,1-.28-.08.28.28,0,0,1-.15-.26.72.72,0,0,1,.09-.34c.11-.23.24-.47.38-.73a6,6,0,0,0,.38-.81c.43-.88.86-1.73,1.29-2.54l1.11-2.16a1.65,1.65,0,0,1,1.62-.94h2.65c-.2.17-.45.36-.74.58a3.11,3.11,0,0,0-.84,1q-1.16,2-2,3.78c-.57,1.21-1.18,2.5-1.84,3.87a10.48,10.48,0,0,0-.68,1.79,5.87,5.87,0,0,0-.21,1.42c0,.94.31,1.41.94,1.41s1.51-.56,2.48-1.67a29.39,29.39,0,0,0,2.41-3.36c.81-1.29,1.6-2.63,2.35-4s1.42-2.66,2-3.83a1.7,1.7,0,0,1,1.67-.94H115a5.6,5.6,0,0,0-1.9,2.22c-.44.91-.94,2.08-1.48,3.51S110.48,58,110,59.71s-1.11,3.34-1.77,5a19.33,19.33,0,0,0,3.18-1.45,8.81,8.81,0,0,0,3-2.82,31.6,31.6,0,0,0,1.69-2.8c.47-.9.8-1.55,1-1.95s.27-.43.47-.43.3.13.3.39a1,1,0,0,1-.13.47c-.74,1.48-1.4,2.73-2,3.74a13.36,13.36,0,0,1-1.92,2.61,10.93,10.93,0,0,1-2.54,1.92,27.42,27.42,0,0,1-3.81,1.69q-1,1.83-2.33,3.83a26.25,26.25,0,0,1-3,3.71,14.78,14.78,0,0,1-3.63,2.83A9.06,9.06,0,0,1,94.16,77.56Zm-1-.86A5.86,5.86,0,0,0,96,75.85,15.86,15.86,0,0,0,99,73.69,35.47,35.47,0,0,0,101.53,71a27.59,27.59,0,0,0,1.9-2.38,5.73,5.73,0,0,0,.47-.76c.18-.32.35-.62.52-.9l-4.6,1.22a29.6,29.6,0,0,0-4.34,1.47,7.48,7.48,0,0,0-3.22,2.44A4.89,4.89,0,0,0,91.08,75a1.7,1.7,0,0,0,.49,1.26A2.13,2.13,0,0,0,93.13,76.7Z"/><path class="cls-24" d="M126.3,64.05a2.08,2.08,0,0,1-1.06-.22,2.39,2.39,0,0,1-1-.94,3.45,3.45,0,0,1-.45-1.92,10.27,10.27,0,0,1,.38-2.48c-.34.54-.78,1.21-1.32,2a13.84,13.84,0,0,1-1.75,2.07,6.17,6.17,0,0,1-1.54,1.11,3.18,3.18,0,0,1-1.33.35,2.07,2.07,0,0,1-1.79-1,4.57,4.57,0,0,1-.69-2.63,10.83,10.83,0,0,1,.86-3.89A17.12,17.12,0,0,1,119.34,52a9.63,9.63,0,0,1,3-2.42,7.53,7.53,0,0,1,3.48-.91,5.44,5.44,0,0,1,1.89.32,4.07,4.07,0,0,1,1.58,1,1,1,0,0,1,.3.69.52.52,0,0,1-.22.42.58.58,0,0,1-.55.09,2,2,0,0,0-2-1.5,3.87,3.87,0,0,0-1.67.47,11.38,11.38,0,0,0-3,2.53,26,26,0,0,0-2.72,3.63c-.11.17-.29.5-.53,1a16.91,16.91,0,0,0-.71,1.63,8.61,8.61,0,0,0-.47,1.75,2.23,2.23,0,0,0,0,.36v.32c0,.95.36,1.42,1.07,1.42s1.82-.63,2.9-1.89a23.38,23.38,0,0,0,2-2.86c.6-1,1.21-2.07,1.84-3.21a19.54,19.54,0,0,1,1.2-1.92,1.84,1.84,0,0,1,1.58-.77,3.38,3.38,0,0,1,.94.13,2.3,2.3,0,0,0,1,0,8.29,8.29,0,0,0-.91,1.28c-.39.63-.8,1.34-1.22,2.14a25.86,25.86,0,0,0-1.16,2.44,14.52,14.52,0,0,0-.72,2.14c0,.17-.07.41-.11.72a6.15,6.15,0,0,0-.06.69c0,.79.22,1.19.68,1.19a2.18,2.18,0,0,0,1.47-.81,12.31,12.31,0,0,0,1.56-2c.52-.8,1-1.6,1.42-2.41l1-2c.11-.29.29-.43.51-.43s.22.1.22.3a1.52,1.52,0,0,1-.13.47c-.34.71-.76,1.52-1.24,2.42s-1,1.76-1.58,2.6a11.21,11.21,0,0,1-1.78,2.1A3.27,3.27,0,0,1,126.3,64.05Z"/><path class="cls-24" d="M88.49,141.1a17.2,17.2,0,0,1-2-.13,6.6,6.6,0,0,1-4-1.61,3.59,3.59,0,0,1,.13-5.57,5.59,5.59,0,0,1,4-1.29,11.52,11.52,0,0,1,3.72.69,14.49,14.49,0,0,1,2.12.87l2.5,1.26c.83.43,1.47.77,1.92,1a25.62,25.62,0,0,0,3.49-4.25c1.07-1.61,2.08-3.34,3-5.17l3-5.58c1-1.88,2-3.72,3.15-5.5a32.75,32.75,0,0,1,3.65-4.89,19.2,19.2,0,0,0-4.89-2.12,20.33,20.33,0,0,0-5.5-.75,19.86,19.86,0,0,0-2.16.13c-.72.09-1.46.2-2.2.34a19,19,0,0,0-6.71,2.72,14.12,14.12,0,0,0-4.12,4.06,7.86,7.86,0,0,0-1.39,4.17,4.33,4.33,0,0,0,.77,2.56,4.2,4.2,0,0,0,2.35,1.59,7.53,7.53,0,0,0,2,.34,5,5,0,0,0,2.45-.58A6.44,6.44,0,0,0,95.55,122a7.19,7.19,0,0,0,1.09-1.67A4.11,4.11,0,0,0,97,119q0-.3.39-.3c.4,0,.55.24.47.72a5.55,5.55,0,0,1-1.28,3,7.62,7.62,0,0,1-2.57,2,6.89,6.89,0,0,1-8.53-2,6.25,6.25,0,0,1-1.34-4,8.2,8.2,0,0,1,1.51-4.55,13.47,13.47,0,0,1,4.86-4.12,29.14,29.14,0,0,1,12.35-2.87,25,25,0,0,1,11.5,2.82l1.07-1.24c.25-.22.62-.51,1.09-.85s1-.67,1.43-1a5.54,5.54,0,0,1,1.07-.6,2.52,2.52,0,0,1,.9-.22c.17,0,.25.05.25.13s-.22.44-.68.73a5,5,0,0,0-.77.66c-.23.24-.4.44-.51.58-.43.6-.77,1.08-1,1.45s-.56.86-1,1.45a20.88,20.88,0,0,1,6.41,6.74,17.86,17.86,0,0,1,2.48,9.42,19.44,19.44,0,0,1-.13,2.27,12.54,12.54,0,0,1-1.49,5,12.3,12.3,0,0,1-3.23,3.76,15,15,0,0,1-4.4,2.37,15.32,15.32,0,0,1-5.07.84,16.13,16.13,0,0,1-2-.13,40.4,40.4,0,0,1-6.91-1.35,42.48,42.48,0,0,1-4.76-1.73A13.37,13.37,0,0,1,88.49,141.1Zm-.94-1.33a11.45,11.45,0,0,0,4.41-.58,14.33,14.33,0,0,0,3.8-2c-1-.49-2.06-1-3.12-1.52a30.32,30.32,0,0,0-3.33-1.43,6.54,6.54,0,0,0-2-.39,3.09,3.09,0,0,0-2.4.88,2.79,2.79,0,0,0-.81,1.94,2.92,2.92,0,0,0,.9,2.08A3.77,3.77,0,0,0,87.55,139.77Zm22.58,0a12.17,12.17,0,0,0,6-1.47,12.31,12.31,0,0,0,4.26-3.87,11.29,11.29,0,0,0,1.92-5.17,15.79,15.79,0,0,0,.13-2.05,18.08,18.08,0,0,0-2-8.49,19.91,19.91,0,0,0-5.23-6.43q-1.89,2.94-3.87,6.24c-1.33,2.19-2.66,4.37-4,6.52s-2.64,4.14-3.91,6a42.76,42.76,0,0,1-3.57,4.53,8.7,8.7,0,0,0-.75.75,4.67,4.67,0,0,1-.92.79,33.23,33.23,0,0,0,4.58,1.62,32.06,32.06,0,0,0,6,1,5.79,5.79,0,0,0,.67,0Z"/><path class="cls-24" d="M130.13,139.6a4.36,4.36,0,0,1-2.84-1,3.78,3.78,0,0,1-1.26-3.12,10.48,10.48,0,0,1,.94-4.12,14.25,14.25,0,0,1,2.39-3.87,11.39,11.39,0,0,1,2.78-2.39,5.59,5.59,0,0,1,2.91-.94,2.63,2.63,0,0,1,1.62.51,1.86,1.86,0,0,1,.73,1.58,4.48,4.48,0,0,1-.81,2.35,9.26,9.26,0,0,1-2.31,2.39,7.89,7.89,0,0,1-1.63.9,15.42,15.42,0,0,1-2,.71,6.52,6.52,0,0,1-1.63.28,9.23,9.23,0,0,0-.6,3.12,4.3,4.3,0,0,0,.43,1.92,1.6,1.6,0,0,0,1.58.85,4.38,4.38,0,0,0,2.57-.81,9,9,0,0,0,2.05-2,17.06,17.06,0,0,0,1.52-2.46c.41-.82.74-1.52,1-2.09q.25-.6.69-.6a.19.19,0,0,1,.21.21.94.94,0,0,1-.13.43l-1.28,2.72a16.33,16.33,0,0,1-1.63,2.69,7.46,7.46,0,0,1-2.24,2A6,6,0,0,1,130.13,139.6Zm-.77-7.52a7.75,7.75,0,0,0,2-.45,7.36,7.36,0,0,0,2.56-1.43,7.15,7.15,0,0,0,1.71-2.16,4.62,4.62,0,0,0,.6-2c0-.63-.23-.94-.68-.94a2.73,2.73,0,0,0-1.41.68,14.73,14.73,0,0,0-2.22,2.31,20.26,20.26,0,0,0-1.54,2.22C129.9,131.12,129.56,131.71,129.36,132.08Z"/><path class="cls-24" d="M146.93,139.56a2.25,2.25,0,0,1-1.07-.22,2.39,2.39,0,0,1-1.05-.94,3.45,3.45,0,0,1-.44-1.92,9.79,9.79,0,0,1,.38-2.48c-.34.54-.78,1.2-1.32,2a13.89,13.89,0,0,1-1.76,2.07,6.07,6.07,0,0,1-1.54,1.11,3.08,3.08,0,0,1-1.32.34,2.09,2.09,0,0,1-1.8-1,4.64,4.64,0,0,1-.68-2.63,10.79,10.79,0,0,1,.85-3.89,17.39,17.39,0,0,1,2.78-4.53,9.67,9.67,0,0,1,3-2.42,7.53,7.53,0,0,1,3.48-.91,5.38,5.38,0,0,1,1.88.32,3.93,3.93,0,0,1,1.58,1,1,1,0,0,1,.3.69.51.51,0,0,1-.21.42.59.59,0,0,1-.56.09,1.93,1.93,0,0,0-2-1.5,3.83,3.83,0,0,0-1.66.47,11.41,11.41,0,0,0-3,2.53,25.93,25.93,0,0,0-2.71,3.63,11.1,11.1,0,0,0-.54,1c-.24.49-.47,1-.7,1.63a8,8,0,0,0-.47,1.75,2.23,2.23,0,0,0,0,.36v.32c0,.94.35,1.41,1.06,1.41s1.83-.62,2.91-1.88a24.53,24.53,0,0,0,2-2.86c.6-1,1.21-2.07,1.84-3.21a19.66,19.66,0,0,1,1.19-1.92,1.85,1.85,0,0,1,1.59-.77,3.43,3.43,0,0,1,.94.13,2.3,2.3,0,0,0,1,0,8.18,8.18,0,0,0-.92,1.28c-.38.63-.79,1.34-1.22,2.14s-.81,1.61-1.15,2.44a14.31,14.31,0,0,0-.73,2.14c0,.17-.06.41-.1.72a4.75,4.75,0,0,0-.07.69c0,.79.23,1.19.68,1.19a2.2,2.2,0,0,0,1.48-.81,12.31,12.31,0,0,0,1.56-2c.51-.8,1-1.6,1.41-2.41s.77-1.48,1-2c.11-.29.28-.43.51-.43s.21.1.21.3a1.73,1.73,0,0,1-.12.47c-.35.71-.76,1.52-1.24,2.42s-1,1.76-1.59,2.6a11.92,11.92,0,0,1-1.77,2.1A3.27,3.27,0,0,1,146.93,139.56Z"/><text class="cls-25" transform="translate(73.9 156.86)">29.10.2023</text><path class="cls-26" d="M74.39,156.86v-.59l.76-.74c1.84-1.75,2.67-2.68,2.68-3.76a1.28,1.28,0,0,0-1.43-1.4,2.41,2.41,0,0,0-1.52.61l-.31-.69a3.15,3.15,0,0,1,2-.73,2,2,0,0,1,2.2,2.09c0,1.32-1,2.4-2.47,3.85l-.58.53v0H79v.8Z"/><path class="cls-26" d="M80.62,156.18a4.43,4.43,0,0,0,.78,0,2.71,2.71,0,0,0,1.51-.7,3.21,3.21,0,0,0,1-1.91h0a2.11,2.11,0,0,1-1.69.77,2.08,2.08,0,0,1-2.12-2.2,2.46,2.46,0,0,1,2.45-2.55c1.47,0,2.38,1.19,2.38,3A4.54,4.54,0,0,1,83.6,156a3.59,3.59,0,0,1-2.09,1,4.16,4.16,0,0,1-.89.05Zm.35-4.13a1.38,1.38,0,0,0,1.38,1.52,1.62,1.62,0,0,0,1.42-.75.69.69,0,0,0,.09-.35c0-1.23-.46-2.17-1.47-2.17C81.56,150.3,81,151,81,152.05Z"/><path class="cls-26" d="M85.8,156.29a.65.65,0,0,1,.66-.7.7.7,0,1,1-.66.7Z"/><path class="cls-26" d="M90.11,150.59h0l-1.25.67-.18-.74,1.56-.84h.83v7.18h-.94Z"/><path class="cls-26" d="M98.44,153.2c0,2.44-.91,3.79-2.5,3.79-1.4,0-2.35-1.32-2.37-3.69s1-3.74,2.49-3.74S98.44,150.91,98.44,153.2Zm-3.9.11c0,1.86.57,2.92,1.46,2.92s1.47-1.16,1.47-3S97,150.31,96,150.31,94.54,151.35,94.54,153.31Z"/><path class="cls-26" d="M99.41,156.29a.65.65,0,0,1,.66-.7.7.7,0,1,1-.66.7Z"/><path class="cls-26" d="M101.62,156.86v-.59l.76-.74c1.83-1.75,2.66-2.68,2.67-3.76a1.28,1.28,0,0,0-1.42-1.4,2.42,2.42,0,0,0-1.53.61l-.31-.69a3.17,3.17,0,0,1,2-.73,2,2,0,0,1,2.2,2.09c0,1.32-1,2.4-2.47,3.85L103,156v0h3.23v.8Z"/><path class="cls-26" d="M112.05,153.2c0,2.44-.9,3.79-2.5,3.79-1.4,0-2.35-1.32-2.37-3.69s1-3.74,2.5-3.74S112.05,150.91,112.05,153.2Zm-3.9.11c0,1.86.58,2.92,1.46,2.92s1.47-1.16,1.47-3-.45-2.93-1.46-2.93C108.77,150.31,108.15,151.35,108.15,153.31Z"/><path class="cls-26" d="M112.94,156.86v-.59l.76-.74c1.84-1.75,2.67-2.68,2.68-3.76a1.28,1.28,0,0,0-1.43-1.4,2.41,2.41,0,0,0-1.52.61l-.31-.69a3.15,3.15,0,0,1,2-.73,2,2,0,0,1,2.2,2.09c0,1.32-1,2.4-2.47,3.85l-.58.53v0h3.23v.8Z"/><path class="cls-26" d="M118.84,155.75a3.28,3.28,0,0,0,1.59.45c1.25,0,1.63-.79,1.62-1.39,0-1-.91-1.44-1.85-1.44h-.54v-.73h.54c.7,0,1.6-.36,1.6-1.21,0-.58-.37-1.08-1.26-1.08a2.64,2.64,0,0,0-1.44.47l-.25-.71a3.44,3.44,0,0,1,1.88-.55c1.41,0,2,.84,2,1.71a1.78,1.78,0,0,1-1.32,1.69v0a1.87,1.87,0,0,1,1.6,1.84c0,1.15-.9,2.16-2.62,2.16a3.69,3.69,0,0,1-1.87-.49Z"/></g></g></svg>