<svg xmlns="http://www.w3.org/2000/svg" xmlns:xlink="http://www.w3.org/1999/xlink" viewBox="0 0 295.95 257.08"><defs><style>.cls-1{fill:url(#linear-gradient);}.cls-2,.cls-9{fill:#f8f5f1;}.cls-3{fill:url(#linear-gradient-2);}.cls-4{fill:url(#linear-gradient-3);}.cls-5{fill:url(#linear-gradient-4);}.cls-6{fill:url(#linear-gradient-5);}.cls-7{fill:url(#linear-gradient-6);}.cls-8{fill:url(#linear-gradient-7);}.cls-9{stroke-miterlimit:10;stroke-width:1.99px;stroke:url(#linear-gradient-8);}.cls-10,.cls-11,.cls-12{fill:none;stroke-linecap:round;stroke-linejoin:round;stroke-width:0.66px;}.cls-10{stroke:url(#linear-gradient-9);}.cls-11{stroke:url(#linear-gradient-10);}.cls-12{stroke:url(#linear-gradient-11);}.cls-13{fill:url(#linear-gradient-12);}.cls-14{fill:url(#linear-gradient-13);}.cls-15{fill:url(#linear-gradient-14);}.cls-16{fill:url(#linear-gradient-15);}.cls-17{fill:url(#linear-gradient-16);}.cls-18{fill:url(#linear-gradient-17);}.cls-19{fill:url(#linear-gradient-18);}.cls-20{font-size:174.36px;font-family:CormorantInfant-Medium, CormorantInfant Medium;font-weight:500;}.cls-20,.cls-22{fill:#e8b678;}.cls-21{fill:url(#linear-gradient-19);}.cls-22{font-size:79.89px;font-family:CormorantInfant-Regular, CormorantInfant Regular;}.cls-23{fill:url(#linear-gradient-20);}.cls-24{fill:url(#linear-gradient-21);}</style><linearGradient id="linear-gradient" x1="95.51" y1="100.85" x2="83.37" y2="44.97" gradientTransform="translate(-0.68 -20.75) rotate(4.67)" gradientUnits="userSpaceOnUse"><stop offset="0" stop-color="#bf8d5b"/><stop offset="0.19" stop-color="#967039"/><stop offset="0.37" stop-color="#c6985b"/><stop offset="0.54" stop-color="#edb876"/><stop offset="0.63" stop-color="#fcc480"/><stop offset="0.71" stop-color="#ebb674"/><stop offset="0.87" stop-color="#bd9054"/><stop offset="1" stop-color="#967039"/></linearGradient><linearGradient id="linear-gradient-2" x1="186.44" y1="17.38" x2="186.51" y2="17.38" gradientTransform="matrix(-0.84, 0.55, 0.55, 0.84, 153.28, -17.75)" gradientUnits="userSpaceOnUse"><stop offset="0" stop-color="#6e421a"/><stop offset="0.41" stop-color="#aa772b"/><stop offset="0.56" stop-color="#ba8830"/><stop offset="0.84" stop-color="#e5b63c"/><stop offset="1" stop-color="#ffd243"/></linearGradient><linearGradient id="linear-gradient-3" x1="65.89" y1="166.17" x2="-9.34" y2="57.17" gradientTransform="matrix(0.98, -0.17, 0.17, 0.98, -5.06, 44.63)" xlink:href="#linear-gradient"/><linearGradient id="linear-gradient-4" x1="-209.92" y1="369.18" x2="-209.85" y2="369.18" gradientTransform="translate(699.64 136.33) rotate(54.24)" xlink:href="#linear-gradient-2"/><linearGradient id="linear-gradient-5" x1="568.68" y1="334.04" x2="493.46" y2="225.04" gradientTransform="matrix(-0.86, -0.52, -0.52, 0.86, 824.63, 252.72)" xlink:href="#linear-gradient"/><linearGradient id="linear-gradient-6" x1="30.44" y1="10.75" x2="45.92" y2="92.55" gradientUnits="userSpaceOnUse"><stop offset="0.19" stop-color="#b6ceb8"/><stop offset="0.35" stop-color="#cbdbcd"/><stop offset="0.49" stop-color="#e6f0e7"/><stop offset="0.54" stop-color="#dae6db"/><stop offset="0.63" stop-color="#cbdbcd"/><stop offset="0.78" stop-color="#bad0bc"/><stop offset="0.81" stop-color="#b6ceb8"/></linearGradient><linearGradient id="linear-gradient-7" x1="268.02" y1="170.82" x2="351.38" y2="99.34" gradientUnits="userSpaceOnUse"><stop offset="0" stop-color="#abc5ae"/><stop offset="0.19" stop-color="#b6ceb8"/><stop offset="0.35" stop-color="#cbdbcd"/><stop offset="0.49" stop-color="#e6f0e7"/><stop offset="0.54" stop-color="#dae6db"/><stop offset="0.63" stop-color="#cbdbcd"/><stop offset="0.78" stop-color="#bad0bc"/><stop offset="0.81" stop-color="#b6ceb8"/><stop offset="1" stop-color="#abc5ae"/></linearGradient><linearGradient id="linear-gradient-8" x1="171.82" y1="226.65" x2="362.86" y2="226.65" gradientTransform="translate(-111.19 -98.1)" xlink:href="#linear-gradient"/><linearGradient id="linear-gradient-9" x1="356.25" y1="211.85" x2="356.92" y2="211.85" gradientTransform="translate(127.38 -220.75) rotate(45)" xlink:href="#linear-gradient"/><linearGradient id="linear-gradient-10" x1="177.75" y1="226.65" x2="356.92" y2="226.65" gradientTransform="translate(127.38 -220.75) rotate(45)" xlink:href="#linear-gradient"/><linearGradient id="linear-gradient-11" x1="263.06" y1="296.68" x2="356.92" y2="296.68" gradientTransform="translate(127.38 -220.75) rotate(45)" xlink:href="#linear-gradient"/><linearGradient id="linear-gradient-12" x1="82.17" y1="190.2" x2="-1.7" y2="179.1" gradientUnits="userSpaceOnUse"><stop offset="0" stop-color="#abc5ae"/><stop offset="0.19" stop-color="#b6ceb8"/><stop offset="0.35" stop-color="#cbdbcd"/><stop offset="0.49" stop-color="#e6f0e7"/><stop offset="0.54" stop-color="#dae6db"/><stop offset="0.63" stop-color="#cbdbcd"/><stop offset="0.78" stop-color="#bad0bc"/><stop offset="0.81" stop-color="#b6ceb8"/></linearGradient><linearGradient id="linear-gradient-13" x1="86.18" y1="185.75" x2="-65.82" y2="208.98" xlink:href="#linear-gradient-7"/><linearGradient id="linear-gradient-14" x1="125.92" y1="-98.68" x2="116.72" y2="-141.01" gradientTransform="matrix(0.31, -0.95, 0.95, 0.31, 153.75, 308.84)" xlink:href="#linear-gradient"/><linearGradient id="linear-gradient-15" x1="259.63" y1="175.72" x2="247.49" y2="119.84" gradientTransform="translate(-1.52 7.37) rotate(-1.05)" xlink:href="#linear-gradient"/><linearGradient id="linear-gradient-16" x1="593.03" y1="228.31" x2="604.32" y2="161.31" gradientTransform="matrix(-0.93, -0.36, -0.36, 0.93, 821.47, 232.99)" xlink:href="#linear-gradient-12"/><linearGradient id="linear-gradient-17" x1="172.57" y1="194.94" x2="172.31" y2="194.68" xlink:href="#linear-gradient-12"/><linearGradient id="linear-gradient-18" x1="251.92" y1="131.72" x2="246.95" y2="108.86" gradientTransform="translate(326 -55.43) rotate(89.62)" xlink:href="#linear-gradient"/><linearGradient id="linear-gradient-19" x1="158.16" y1="123.44" x2="158.16" y2="-34.71" xlink:href="#linear-gradient-12"/><linearGradient id="linear-gradient-20" x1="103.39" y1="120.98" x2="154.37" y2="141.16" gradientUnits="userSpaceOnUse"><stop offset="0" stop-color="#b38d5d"/><stop offset="0.19" stop-color="#8d6e3f"/><stop offset="0.39" stop-color="#c79d61"/><stop offset="0.55" stop-color="#eebd78"/><stop offset="0.63" stop-color="#fdc981"/><stop offset="0.7" stop-color="#ebbb77"/><stop offset="0.85" stop-color="#be965c"/><stop offset="1" stop-color="#8d6e3f"/></linearGradient><linearGradient id="linear-gradient-21" x1="122.18" y1="100.46" x2="188.76" y2="126.81" xlink:href="#linear-gradient-20"/></defs><g id="Layer_2" data-name="Layer 2"><g id="OBJECTS"><path class="cls-1" d="M94.28,27a82.18,82.18,0,0,0-4.45,15.47A73.89,73.89,0,0,1,86.5,55.51,63.93,63.93,0,0,1,71.17,78.73s-1.2,1.93-1.75,2.84l-.59-.74a12.08,12.08,0,0,0,1.59-3.11C72.27,70.59,71.62,63.1,74,56,78,44.47,85.91,36,93.37,26.6c.23-.26,1-1.24,1.23-1.06S94.38,26.68,94.28,27Z"/><path class="cls-2" d="M92,30a78.82,78.82,0,0,0-2.63,9.18c-1.11,5-1.72,10.11-3.45,15-2.89,8.13-7.7,15-13.17,21.42a140.13,140.13,0,0,0,10.39-27c.36-1.33-.15-.81-.37-.32-2,4.8-3.47,10-5.31,14.88a104.77,104.77,0,0,1-5.39,12c1-5.58.71-11.46,2.49-16.89A55.75,55.75,0,0,1,83.14,41.4C86,37.56,89,33.76,92,30Z"/><path class="cls-3" d="M6.56,98.73a3.62,3.62,0,0,0-.28-.56A5.85,5.85,0,0,0,6.56,98.73Z"/><path class="cls-4" d="M93.22,195.35a74.68,74.68,0,0,0-7.42-11.91h0c-2.15-6.61-1-13-1.47-19.78a47.21,47.21,0,0,0-4.21-16.24A48.45,48.45,0,0,0,57.26,123.9a.64.64,0,0,0-.58,1.14l.14.07c7.2,8.67,9.55,20.12,12.22,30.71a62.79,62.79,0,0,0,6.08,15.24A.44.44,0,0,0,75,171h0s0,0,0-.06c-1.28-2.45-3.66-4.39-5.92-6h0c-3.06-3-6.13-6.06-9.1-9.13-.49-.5-1-1-1.46-1.53h0a123.11,123.11,0,0,0-8.2-30.63c-3.65-8.65-8.17-17.28-14.87-24a3,3,0,0,0-.89-.61c-.4-.06-.5.43-.37.89,1.37,4.87,1.27,9.91,2.12,14.87a49.5,49.5,0,0,0,4.13,12.89c4.11,8.58,11.39,15.24,15.48,23.78-1.6-1.76-3.17-3.53-4.68-5.35A92.93,92.93,0,0,0,40.54,131.3c-2.62-4.27-5.08-8.66-7.64-13h0v0s0,0,0-.06c.13-9-5.87-17.08-12.24-22.81C13.94,89.42,3.48,84,3.5,73.54a.64.64,0,0,0-1.2-.26c-3.64,6.3-2.64,14.12.81,20.37v0c-1.24,5,.71,11.25,2.54,15.58a44.34,44.34,0,0,0,12.49,16.81,71.33,71.33,0,0,0,14.71,8.85c6,2.89,12.59,6.05,16.74,11.4-14.24-9.66-35.35-9.42-45.32-25.16a.65.65,0,0,0-1.15.55c3.46,11.42,10.8,21.62,21.36,27.42s22.48,2.24,33.16,7A87.59,87.59,0,0,1,64.27,162,41.84,41.84,0,0,0,53,158a46.5,46.5,0,0,0-18.54.35c-4,.84-7.84,2-11.83,2.77A19.29,19.29,0,0,1,9.5,159.67c-.68-.31-1.37.62-.75,1.1,8.75,6.82,18.9,13,30.38,12.77,5.57-.09,10.81-2,16.19-3.22,6.77-1.49,12.38-.31,18.81,1.75,2,2.05,3.86,4.14,5.71,6.27l0,0a63.76,63.76,0,0,0,4.06,4.94A87.42,87.42,0,0,1,92.28,196C92.63,196.6,93.53,196,93.22,195.35Zm-56.16-67.8a97.69,97.69,0,0,0-9.68-8.68c-6.41-5-13.4-10.55-17.91-17.55,7.08,6.11,16.34,9.69,22.23,17,0,0,.29.35.37.48h0C33.76,121.73,35.39,124.65,37.06,127.55ZM2.41,76c1.23,8,8.73,13.52,14.7,18.27,6.67,5.32,12.62,12.3,14.2,20.77-2.47-5.35-6.7-9.21-11.39-12.85-7.81-6.06-12.65-12.93-17.1-21.7-.14-.26-.54-.07-.41.19,3.07,6.64,6.64,13,12.09,17.93,6.23,5.68,12.64,9.69,16.34,17.3-5.63-6-13.5-9.51-19.74-14.74a31.16,31.16,0,0,1-3.91-4,27.07,27.07,0,0,1-1.87-5.62s-.09-.27-.17-.56a.15.15,0,0,0-.06,0A.16.16,0,0,0,5,90.87l-.09,0a.62.62,0,0,0-.81.27,6.43,6.43,0,0,0-.39.79C1.17,86.9.26,81.24,2.41,76Zm21,52.39A43.44,43.44,0,0,1,9.28,113.59c-2.71-4.68-6.09-12.19-5.2-18.29h0c0-.14.18-1.55.35-2.27a23.38,23.38,0,0,0,1.83,5.16h0a5.85,5.85,0,0,0,.28.56,0,0,0,0,0,0,0c3.77,7.64,10.75,13.87,17.16,18.93a119.6,119.6,0,0,1,17,16.1q1.7,2,3.28,4.1c-4.84-4.85-10.82-8.79-16.23-12.79-4-2.94-8.23-5.65-11.69-9.21-3.64-3.75-6.29-8.28-9-12.7-.17-.28-.62-.08-.46.22,4.27,8,9.09,14.11,16.44,19.48,7.14,5.22,14.94,10.33,21.15,16.75C37.82,135.17,29.84,132.49,23.44,128.34Zm19.07.71a48.42,48.42,0,0,1-5.29-16.68c-.45-3.56-.56-7.13-1.31-10.6,6,6.64,10.13,15,13.51,23.14a115.18,115.18,0,0,1,6.41,21.62C51.94,134,43.55,123.08,40.3,110.22c-.06-.21-.39-.16-.35.06,2.67,13.37,10.52,25.33,15.56,37.95C51.64,141.57,46.17,135.88,42.51,129.05ZM5.75,125.31c12.79,14.77,37.14,12.74,49.67,27.82-4.91-3.66-10.66-5.94-16.46-7.84-7.66-2.51-16.87-4.18-23.14-9.53-.25-.21-.63.2-.39.44,4.89,4.88,12.94,6.51,19.34,8.48,7.3,2.23,14.27,4.68,20.5,9.06-8.87-3.08-18.78-.66-27.53-4.53C17.42,144.65,9.86,135.64,5.75,125.31Zm38.31,46.34c-11.21,2-21.48-2.65-30.44-8.93a13.08,13.08,0,0,0,3.59.51c3.33,0,6.78-1,10-1.72,6.61-1.51,12.94-3.23,19.79-2.93a40.13,40.13,0,0,1,18.37,5.48c.72.42,1.52.89,2.33,1.42h0a21.73,21.73,0,0,1,5,4.21,42.32,42.32,0,0,0-21.57-6.24c-9.64-.23-18.79,4.18-28.41,2.79-.36-.05-.39.48-.05.55,8.09,1.78,16-2,24-2.57A45.7,45.7,0,0,1,72,169.94a30.26,30.26,0,0,0-12.39-1.72C54.28,168.76,49.28,170.71,44.06,171.65Zm25.27-20.26c-1.82-8.5-4.84-17.87-10.18-25A47.7,47.7,0,0,1,80,150.52a45.46,45.46,0,0,1,3.12,17.17A64.82,64.82,0,0,0,83.66,180c-3.55-7.54-3.92-16.53-6.26-24.48s-5.69-15.42-11-21.78a.19.19,0,0,0-.29.24c6.12,8.06,9.64,17.31,12,27.08,1.49,6.22,1.8,13.37,4.84,19.14-1-1.19-1.94-2.41-2.82-3.66A67.35,67.35,0,0,1,69.33,151.39Z"/><path class="cls-5" d="M277.2,182a4,4,0,0,1,.46-.42C277.51,181.71,277.37,181.85,277.2,182Z"/><path class="cls-6" d="M162.11,241.61a88.22,88.22,0,0,1,12.37-8.78c1.91-1,3.77-2,5.57-3.13h0c2.49-1.32,5-2.57,7.59-3.78,6.74.4,12.4,1.34,18.17,5.17,4.59,3.06,8.77,6.76,13.93,8.86,10.63,4.34,22.32,2.28,32.94-.91.75-.22.44-1.34-.3-1.29a19.37,19.37,0,0,1-12.73-3.37c-3.43-2.16-6.63-4.64-10-6.86a46.33,46.33,0,0,0-17.16-7,41.26,41.26,0,0,0-12-.37,86.07,86.07,0,0,1,8.32-3.08c11.68-.59,21.65,7,33.45,5.45s22.48-8.44,29.84-17.83a.65.65,0,0,0-.88-.93c-15,11.07-34.58,3.21-51.35,7.06,5.8-3.49,13.11-4.05,19.73-4.58a71.42,71.42,0,0,0,16.92-2.92,44.24,44.24,0,0,0,17.72-11.16c3.28-3.37,7.35-8.48,8-13.61h0c5.47-4.58,9.24-11.51,8.12-18.7a.64.64,0,0,0-1.21-.19c-3.76,9.75-15.48,11-23.94,14.22-8,3-16.54,8.43-19.66,16.83,0,0,0,.05,0,.07h0c-4,3.08-7.82,6.28-11.81,9.32a91.4,91.4,0,0,0-15.26,10c-2.08,1.15-4.18,2.24-6.31,3.29,6.91-6.48,16.1-10.05,23-16.57a49.27,49.27,0,0,0,8.51-10.52c2.59-4.32,4.31-9.05,7.36-13.1.28-.38.37-.87,0-1a3,3,0,0,0-1.06.25c-8.66,3.8-16,10.21-22.53,16.95A123.49,123.49,0,0,0,208.75,215h0c-.63.31-1.27.61-1.91.9C203,217.67,199,219.37,195,221.1h0c-2.68.66-5.6,1.6-7.68,3.43l-.07,0h0l-.18,0a62.83,62.83,0,0,0,11.19-12c6.32-8.92,12.65-18.74,22.5-24.21l.15,0a.64.64,0,0,0-.12-1.27A48.4,48.4,0,0,0,191,200.75a47.15,47.15,0,0,0-9.8,13.62c-2.91,6.14-4.13,12.53-8.53,17.91h0a75.4,75.4,0,0,0-11.23,8.41C160.93,241.18,161.55,242.09,162.11,241.61Zm84-50.1h0c.12-.09.51-.31.51-.31,8.15-4.72,18.08-4.71,26.89-7.84-6.74,4.89-15.25,7.51-23.05,9.88a95.93,95.93,0,0,0-12.16,4.59C240.94,195.71,243.52,193.58,246.14,191.51Zm36.19-14.87a8.75,8.75,0,0,0-.09-.88.61.61,0,0,0-.65-.55h-.1l-.1,0-.07,0-.36.46a27.51,27.51,0,0,1-3.78,4.57,31.83,31.83,0,0,1-5.08,2.27c-7.71,2.62-16.33,3.09-23.73,6.6,6.2-5.76,13.63-7.18,21.49-10.22,6.88-2.66,12.49-7.26,17.76-12.33a.23.23,0,0,0-.31-.33c-7.33,6.56-14.32,11.21-23.8,14-5.69,1.69-11,3.77-15.26,7.86,4.53-7.33,12.6-11.69,20.74-14.22,7.29-2.28,16.26-4.67,20.32-11.72C289.4,168,286.5,172.91,282.33,176.64Zm-55.07,29.83c8.12-3.73,17.24-5.67,25.78-7.95,8.79-2.36,15.51-6.31,22.38-12.22.26-.22-.1-.57-.35-.37-4.12,3.14-8.24,6.41-13,8.58-4.52,2.07-9.47,3.06-14.24,4.36-6.48,1.77-13.49,3.28-19.76,6,1.5-.92,3-1.81,4.55-2.63a118.71,118.71,0,0,1,21.71-8.84c7.8-2.4,16.56-5.69,22.84-11.45h0c.17-.14.31-.28.46-.42h0a22.86,22.86,0,0,0,3.57-4.15,19.22,19.22,0,0,1-.49,2.25h0c-1.37,6-7.24,11.8-11.46,15.18a43.57,43.57,0,0,1-18.54,8.62C243.29,205,234.87,204.65,227.26,206.47Zm-13.6,3.95c9.26-9.94,20.91-18.25,28.23-29.75.12-.19-.17-.36-.3-.18-7.69,10.81-19.46,18-27.61,28.23a114.81,114.81,0,0,1,13.79-17.84c6.11-6.41,13-12.65,21-16.68-2,3-3.35,6.26-5.06,9.4a48.24,48.24,0,0,1-11,13.64C226.83,202.29,219.67,205.62,213.66,210.42Zm25.53,11c-9.56.44-17.92-5.39-27.3-5.73,7.39-1.83,14.77-1.59,22.38-1,6.68.49,14.78,1.88,21.11-.9.31-.14.1-.66-.21-.55-7.78,2.72-17,.94-25,.51-6.1-.33-12.29-.28-18.18,1.35,17.14-9.53,39.1,1.18,56.37-8C260.77,215.2,250.47,220.86,239.19,221.38Zm-36.55,6.21a30.34,30.34,0,0,0-12.17-2.88,45.77,45.77,0,0,1,25.62,3.81c7.28,3.43,13.25,9.82,21.44,11.09.34,0,.5-.45.15-.54-9.48-2.18-16.41-9.6-25.48-12.88a42.5,42.5,0,0,0-22.36-2,22.71,22.71,0,0,1,6.2-2.11h0c.95-.2,1.86-.35,2.69-.48a40,40,0,0,1,19.1,1.54c6.5,2.2,11.78,6.1,17.39,9.89,2.74,1.85,5.62,4,8.71,5.22a12.76,12.76,0,0,0,3.53.82c-10.63,2.62-21.9,3.28-31.62-2.68C211.34,233.63,207.38,230,202.64,227.59Zm-22.15.3c-1.27.84-2.6,1.63-4,2.39,4.91-4.28,7.8-10.83,11.44-16.09,5.72-8.26,12.35-15.61,21-20.91a.19.19,0,0,0-.18-.33c-7.26,4-13.13,9.79-18.15,16.32s-8.65,14.81-14.69,20.56a65.89,65.89,0,0,0,4.92-11.26A45.47,45.47,0,0,1,190,203.69a47.68,47.68,0,0,1,28.21-15c-7.57,4.75-13.77,12.39-18.55,19.66A67.58,67.58,0,0,1,180.49,227.89Z"/><path class="cls-7" d="M24.39,76.91c1.75,1.1,2.5,3.26,2.82,4.88a4.83,4.83,0,0,0,1.27,2.36,83.06,83.06,0,0,1,12.36,16.93,110.94,110.94,0,0,1-2.63-20.55,4.06,4.06,0,0,0-.74-2.14,6.3,6.3,0,0,1-1.29-4.62c.46-2.47,3.47-2.35,4.1.27a5.29,5.29,0,0,1-.88,3.86,4,4,0,0,0-.58,2.3c.77,12.26,2.76,24.47,8.12,35.59a100.64,100.64,0,0,1-1.09-25.18A55.58,55.58,0,0,1,43.3,67.86,3.39,3.39,0,0,0,43,66c-.73-1.46-1.77-4.24-.74-6.83,1.22-3.09,5.11-2.18,5.27,1.38.1,2.27-1.52,4.28-2.72,5.43a3.29,3.29,0,0,0-1,2.08,56.67,56.67,0,0,0,2.18,21,99.31,99.31,0,0,1,4-19.84,3.37,3.37,0,0,0,0-1.94c-.61-2-1.34-5.81.54-8.9,2.23-3.66,7-1.66,6.41,2.92-.37,3-3,5.21-4.77,6.4a3.31,3.31,0,0,0-1.34,1.8,100.14,100.14,0,0,0-4.06,30.92,58.83,58.83,0,0,1,8.48-23.11,2.75,2.75,0,0,0,.42-1.51c0-1.65.25-4.54,2.24-6.4,2.42-2.28,6,.17,4.65,3.47-.93,2.23-3.71,3.36-5.41,3.87A2.76,2.76,0,0,0,55.55,78a62.55,62.55,0,0,0-7.2,17.6c2.45-5.26,6.75-8.77,11.2-12.35a3.25,3.25,0,0,0,1.09-1.71,6.3,6.3,0,0,1,2.66-3.93c2.19-1.26,4.07,1.11,2.49,3.31a5.73,5.73,0,0,1-4,1.92,3.21,3.21,0,0,0-1.67.71c-4.92,4.11-9.71,8-12,14.42A62.25,62.25,0,0,0,47,105a102.88,102.88,0,0,0,2.52,16.52c0-10.22,4-18.94,10.47-26.87a5.89,5.89,0,0,0,1.17-2.41c.36-1.62,1.3-4.29,3.62-5.63C67.66,85,70.14,88.09,68.05,91a6.9,6.9,0,0,1-4.46,2.42,5.66,5.66,0,0,0-3.47,2.08c-6.8,8.69-10.49,18-9.72,29.49a107.67,107.67,0,0,0,6.8,18.27c.24.5-.62.93-.88.44a93.79,93.79,0,0,1-9-25.63,62.1,62.1,0,0,1-6-14.82A91.08,91.08,0,0,0,28.2,85a4.56,4.56,0,0,0-2.45-1.35,8.39,8.39,0,0,1-5.51-3.2C18.41,77.68,21.37,75,24.39,76.91Z"/><path class="cls-8" d="M292.12,176.82c-1.94-.73-4.11,0-5.6.7a4.73,4.73,0,0,1-2.65.41,83.46,83.46,0,0,0-20.95.38,110.75,110.75,0,0,0,18-10.31,4,4,0,0,1,2.15-.7,6.37,6.37,0,0,0,4.47-1.76c1.69-1.86-.22-4.19-2.69-3.11a5.3,5.3,0,0,0-2.55,3,3.93,3.93,0,0,1-1.48,1.86c-10.24,6.79-21.18,12.58-33.27,15A100.14,100.14,0,0,0,268.23,168a55.56,55.56,0,0,0,19.68-11.7,3.37,3.37,0,0,1,1.65-.86c1.6-.3,4.44-1.15,5.89-3.53,1.72-2.85-1.35-5.4-4.29-3.37-1.87,1.29-2.49,3.79-2.69,5.45a3.29,3.29,0,0,1-1.05,2A56.6,56.6,0,0,1,269.37,167a99.15,99.15,0,0,0,13.4-15.18,3.25,3.25,0,0,1,1.54-1.17c2-.73,5.44-2.44,6.76-5.8,1.58-4-2.89-6.57-6.19-3.35-2.15,2.1-2.35,5.53-2.22,7.67a3.3,3.3,0,0,1-.62,2.15,100.26,100.26,0,0,1-22.2,21.91,58.83,58.83,0,0,0,13.29-20.71,2.84,2.84,0,0,1,1-1.26c1.33-1,3.46-2.93,3.75-5.65.35-3.3-3.77-4.69-5.57-1.6-1.22,2.09-.45,5,.18,6.64a2.77,2.77,0,0,1,0,2A62.31,62.31,0,0,1,262.74,169c2.71-5.13,2.91-10.67,3.08-16.38a3.25,3.25,0,0,1,.71-1.91,6.3,6.3,0,0,0,1.52-4.49c-.31-2.51-3.34-2.57-4.13,0a5.72,5.72,0,0,0,.86,4.33,3.1,3.1,0,0,1,.44,1.76c-.3,6.4-.54,12.6-4.21,18.31a61.51,61.51,0,0,1-5,5.12,103.05,103.05,0,0,1-14.69,8c8.17-6.15,12.67-14.65,15.1-24.57a5.85,5.85,0,0,1,1.22-2.39c1.07-1.27,2.63-3.63,2.3-6.29-.42-3.3-4.41-3.39-5.46,0a7,7,0,0,0,.77,5,5.71,5.71,0,0,1,.44,4c-2.82,10.66-8,19.19-17.63,25.55a108,108,0,0,1-18.68,5.62c-.54.11-.36,1,.19,1a93.66,93.66,0,0,0,25.84-8.33,62,62,0,0,0,15.41-4.19,90.74,90.74,0,0,1,22.51-.51,4.61,4.61,0,0,1,2.55,1.14,8.37,8.37,0,0,0,5.88,2.46C295.12,182.06,295.46,178.08,292.12,176.82Z"/><rect class="cls-9" x="61.62" y="34.02" width="189.04" height="189.04" rx="14.8" transform="translate(136.63 -72.76) rotate(45)"/><line class="cls-10" x1="241.79" y1="169.11" x2="217.64" y2="193.26"/><path class="cls-11" d="M69.59,168.2l-29-29a15.11,15.11,0,0,1,0-21.38L145.46,13a15.11,15.11,0,0,1,21.37,0L271.67,117.85a15.11,15.11,0,0,1,0,21.38l-14.84,14.85"/><path class="cls-12" d="M183.32,227.59l-16.49,16.48a15.11,15.11,0,0,1-21.37,0L90.25,188.86"/><path class="cls-13" d="M60.35,198.54c8.32-1.24,17.3-5.79,19.88-5.84,1,0,1.5-.26,1.58-.62.12-.53-.61-1.33-1.53-2.08a109.37,109.37,0,0,1-9.85-8.76c-6.47-6.24-13-6.72-17.28-6.14-6.71.9-14.24,6.55-19.5,8.54-2.74,1-3.95,1.49-3.8,1.87s.73.45,1.88.77c0,0,3.71.21,9.44,4.66S52,199.79,60.35,198.54Z"/><path class="cls-14" d="M60.35,198.54c8.32-1.24,17.3-5.79,19.88-5.84,1,0,1.5-.26,1.58-.62a109.28,109.28,0,0,0-52-6.57c.09.24.73.45,1.88.77,0,0,3.71.21,9.44,4.66S52,199.79,60.35,198.54Z"/><path class="cls-15" d="M56.57,119.18c-.21.14.13,1.16.21,1.44A83.69,83.69,0,0,1,60,136.41a74,74,0,0,0,2.25,13.32,64,64,0,0,0,13.39,24.38.33.33,0,0,0,.14.1,98.51,98.51,0,0,0,8.73,15.45l4,3.37c-.91-1.17-1.86-2.43-2.43-3.21a28.81,28.81,0,0,0,4.76-16.48,29.94,29.94,0,0,0-1.36-8.65c-1.19-3.82-3-7.41-3.67-11.42a5.17,5.17,0,0,0-.42-1.57c-.18,0-.41,1.21-.47,1.6-1,7-2.59,14-3,21.08a30.9,30.9,0,0,0,1.54,11.56,99.38,99.38,0,0,1-6.82-12.06.44.44,0,0,0,0-.16c-1.44-7.43-.06-15-1.94-22.47-3-11.84-10.22-20.91-16.88-30.9C57.5,120.06,56.79,119,56.57,119.18Z"/><path class="cls-2" d="M83.11,172.4c.58-5.08,1.42-10.14,2.22-15.21,1.26,4.73,3.63,9.17,4,14.16a31.66,31.66,0,0,1-4,17.51l0-.07A34.67,34.67,0,0,1,83.11,172.4Z"/><path class="cls-2" d="M66.7,135.92a56,56,0,0,1,7.16,17.5c1.33,5.56.53,11.39,1.11,17a103.21,103.21,0,0,1-4.4-12.4c-1.44-5-2.5-10.31-4.09-15.25-.17-.51-.64-1.07-.39.28a139.79,139.79,0,0,0,8.16,27.73c-4.92-6.9-9.16-14.08-11.38-22.42-1.33-5-1.52-10.11-2.22-15.21a78.44,78.44,0,0,0-1.87-9.37C61.45,127.84,64.11,131.87,66.7,135.92Z"/><path class="cls-16" d="M263.17,117.19A81.65,81.65,0,0,0,260.29,133a74.84,74.84,0,0,1-2,13.35A63.87,63.87,0,0,1,245.34,171c0,.05-1,2-1.45,3l-.67-.68a12,12,0,0,0,1.28-3.25c1.13-7.27-.26-14.67,1.44-21.94,2.77-11.89,9.81-21.09,16.29-31.22.21-.28.9-1.32,1.12-1.17S263.24,116.91,263.17,117.19Z"/><path class="cls-2" d="M261.22,120.43a80.68,80.68,0,0,0-1.7,9.39c-.6,5.12-.7,10.24-1.93,15.25-2.07,8.38-6.17,15.64-11,22.63a138.89,138.89,0,0,0,7.64-27.88c.23-1.35-.23-.78-.39-.27-1.5,5-2.46,10.29-3.8,15.33a103.65,103.65,0,0,1-4.17,12.47c.47-5.65-.44-11.47.79-17a55.84,55.84,0,0,1,6.84-17.63C256,128.57,258.63,124.49,261.22,120.43Z"/><path class="cls-17" d="M182.06,214.12c1.05,5.57,4.35,11.49,4.45,13.23,0,.69.21,1,.46,1s.88-.45,1.36-1.08a73.21,73.21,0,0,1,5.63-6.86c4-4.52,4.18-8.93,3.68-11.79-.78-4.49-4.78-9.41-6.26-12.89-.78-1.82-1.11-2.62-1.36-2.51s-.28.5-.47,1.29c0,0,0,2.5-2.88,6.47S181,208.56,182.06,214.12Z"/><path class="cls-18" d="M182.06,214.12c1.05,5.57,4.35,11.49,4.45,13.23,0,.69.21,1,.46,1A73.53,73.53,0,0,0,190,193.26c-.16.07-.28.5-.47,1.29,0,0,0,2.5-2.88,6.47S181,208.56,182.06,214.12Z"/><path class="cls-19" d="M203,213.76a5.71,5.71,0,0,0,1-2.79,28.84,28.84,0,0,1,.44-17.15,29.47,29.47,0,0,1,3.9-7.84c2.28-3.28,5.12-6.15,6.94-9.78a5,5,0,0,1,.87-1.37c.18,0,0,1.28,0,1.67-1.18,6.95-1.75,14.16-3.44,21a30.83,30.83,0,0,1-4.95,10.56s-1.45,2-2.43,3.21C204.91,211.8,203,213.76,203,213.76Z"/><path class="cls-2" d="M205,210.19l-.07.06a31.7,31.7,0,0,1,1.43-17.92c1.88-4.64,5.48-8.15,8.11-12.28-.77,5.07-1.49,10.15-2.47,15.17A34.65,34.65,0,0,1,205,210.19Z"/><text class="cls-20" transform="translate(102.97 169.11)">&amp;</text><path class="cls-21" d="M189.81,169.11c-3.32-3.31-6.46-6.62-11-11.5C168.71,167,157.37,171,144.47,171c-22.84,0-36.09-15.34-36.09-32.95,0-16,9.59-27,23-34.35v-.53c-6.1-7.67-9.76-16.21-9.76-24.58,0-14.3,10.29-28.94,29.82-28.94,14.64,0,26,9.76,26,24.93,0,12.38-7.15,22.14-25.81,31.38v.53c9.94,11.51,21.1,24.41,28.6,32.78,5.4-8.2,9.06-19.53,11.33-34.35H205.5c-3.14,18.48-8.2,33.13-16.91,43.41,6.27,6.63,12.38,13.26,19.35,20.75Zm-18.49-20.22c-7-7.67-20-22-33.12-37-6.28,4-15.17,11.51-15.17,23.89,0,13.43,9.93,23.71,24.06,23.71A32.83,32.83,0,0,0,171.32,148.89ZM135.58,77.22c0,8.37,3.84,14.83,8.89,21.1,11.86-6.8,19.53-13.07,19.53-23,0-7.15-4-15.17-13.6-15.17C140.64,60.14,135.58,68.16,135.58,77.22Z"/><text class="cls-22" transform="translate(92.35 149.61)">A</text><path class="cls-23" d="M107.13,132.67l-5.59,16.94H94.35l18.3-53.85H121l18.37,53.85H132l-5.75-16.94Zm17.66-5.43-5.27-15.5c-1.2-3.52-2-6.71-2.8-9.83h-.16c-.8,3.2-1.68,6.47-2.71,9.75l-5.28,15.58Z"/><text class="cls-22" transform="translate(159.78 149.61)">D</text><path class="cls-24" d="M165.85,96.48a99.41,99.41,0,0,1,14.78-1.12c10,0,17.1,2.32,21.81,6.71S210,112.7,210,121.41s-2.72,16-7.75,20.93-13.34,7.75-23.81,7.75a112,112,0,0,1-12.62-.64Zm7,47.62a43.82,43.82,0,0,0,7,.4c14.86,0,22.93-8.31,22.93-22.85.08-12.71-7.11-20.78-21.81-20.78a39.44,39.44,0,0,0-8.15.72Z"/></g></g></svg>