<?xml version="1.0" encoding="utf-8"?>
<!-- Generator: Adobe Illustrator 25.4.1, SVG Export Plug-In . SVG Version: 6.00 Build 0)  -->
<svg version="1.1" id="Layer_1" xmlns="http://www.w3.org/2000/svg" xmlns:xlink="http://www.w3.org/1999/xlink" x="0px" y="0px"
	 viewBox="0 0 183.8 89.6" style="enable-background:new 0 0 183.8 89.6;" xml:space="preserve">
<style type="text/css">
	.st0{font-family:'Alice-Regular';}
	.st1{font-size:27.05px;}
	.st2{font-size:53.83px;}
</style>
<g id="Layer_2_00000040539945194417179420000005431165261966008227_">
	<g id="OBJECTS">
		<text transform="matrix(1 0 0 1 82.01 66.79)" class="st0 st1">&amp;</text>
		<path d="M37.9,17.8c0,0.1-0.1,0.3-0.3,0.3c-16.3,0.7-29,14.5-28.3,30.8c0.3,7.9,3.8,15.4,9.7,20.7c0.1,0.1,0.2,0.3,0.1,0.4
			s-0.3,0.2-0.4,0.1c0,0,0,0-0.1-0.1C6.4,58.9,5.4,39.8,16.5,27.5c5.4-6,13-9.6,21.1-9.9C37.8,17.5,37.9,17.7,37.9,17.8L37.9,17.8z"
			/>
		<path d="M12.7,61.8C6.1,55.6,2.9,46.9,1.5,38.1c-0.5-2.8-0.8-5.5-1-8.3L0,29.9C3.9,40.3,7.7,50.6,11.6,61c0.1,0.3,0.6,0.2,0.5-0.1
			C8.2,50.5,4.3,40.1,0.5,29.8C0.4,29.5,0,29.5,0,29.8c0.8,9.3,2.4,18.9,7.7,26.8c1.3,2,3,3.8,4.8,5.4
			C12.6,62.1,12.9,61.9,12.7,61.8L12.7,61.8z"/>
		<path d="M9,49.8c4.4-5.6,8.9-11.2,13.1-17c0.2-0.2-0.2-0.5-0.4-0.4C15.7,36.6,11.2,42.7,9,49.8c-0.1,0.4,0.5,0.5,0.6,0.1
			c2.1-6.9,6.5-12.8,12.4-17l-0.4-0.4c-4.2,5.7-8.5,11.3-12.9,16.9C8.6,49.7,8.9,50,9,49.8L9,49.8z"/>
		<path d="M10.5,39.7c-0.5-5-0.1-10,1.4-14.8c1.3-4.3,3.4-9.1,7.2-11.9l-0.4-0.3c-3.6,8.5-6.6,17.3-8.8,26.2
			c-0.1,0.5,0.6,0.7,0.8,0.2c2.1-9,5-17.7,8.5-26.2c0.1-0.3-0.2-0.4-0.4-0.2c-3.7,3-5.8,7.3-7.2,11.8c-1.5,4.9-2,10.1-1.4,15.3
			C10.1,39.9,10.5,39.9,10.5,39.7z"/>
		<path d="M16.6,28.6l15-6.2c0.1,0,0.2-0.2,0.2-0.3c0-0.1-0.2-0.2-0.3-0.2c-5.2,1.1-10.7,2.2-14.9,5.7c-0.3,0.2,0.1,0.7,0.4,0.4
			c4.1-3.5,9.5-4.7,14.7-5.7c0-0.2-0.1-0.3-0.1-0.5l-15,6.2C16.2,28.2,16.3,28.7,16.6,28.6L16.6,28.6z"/>
		<path d="M25.3,21.2c5.3-4,10.2-8.5,14.5-13.5c0.1-0.1,0.2-0.3,0-0.5c-0.1-0.1-0.3-0.2-0.4-0.1c-3.3,1.4-6,3.9-8.5,6.4
			c-2.9,2.8-5.7,5.6-8.3,8.7c-0.3,0.3,0.2,0.8,0.5,0.5c2.5-3,5.3-5.7,8-8.5c2.5-2.6,5.2-5.1,8.6-6.5l-0.3-0.6
			c-4.3,5-9.1,9.6-14.1,13.8C25,21.1,25.1,21.3,25.3,21.2L25.3,21.2z"/>
		<path d="M15.5,66c-0.7-1.6-1.2-3.2-1.6-4.9c-0.4-1.7-0.6-3.5-0.6-5.2c0-3.6,0.9-7.1,2.6-10.2l-0.4-0.1c0,3.5,0.1,7-0.1,10.6
			c-0.2,3.3-0.9,6.7-0.2,10c0.1,0.3,0.6,0.2,0.5-0.1c-0.3-1.7-0.4-3.4-0.2-5.1c0.1-1.7,0.2-3.4,0.4-5.1c0.2-3.4,0.3-6.9,0.1-10.3
			c0-0.2-0.3-0.3-0.4-0.1c-1.6,3.2-2.5,6.7-2.6,10.2c-0.3,3.6,0.5,7.2,2.1,10.4C15.1,66.4,15.5,66.2,15.5,66L15.5,66z"/>
		<path d="M15.4,46.5c-0.2,0.7-0.5,1.4-0.7,2.2s-0.4,1.5-0.5,2.2c-0.2,1.5-0.4,3-0.4,4.5c-0.1,3,0,6.1,0.5,9.1
			c0.1,0.3,0.6,0.2,0.5-0.1c-0.6-2.9-0.8-6-0.6-9c0.1-1.5,0.3-3,0.5-4.5c0.3-1.5,0.4-3,0.8-4.4C15.5,46.5,15.4,46.5,15.4,46.5
			L15.4,46.5z"/>
		<path d="M0.3,31.4c0.3,1.3,0.7,2.5,1,3.8s0.6,2.5,0.9,3.8c0.6,2.4,1.3,4.9,2.1,7.3C5.9,51,8,55.6,10.5,59.9
			c0.1,0.1,0.2,0.1,0.3,0.1c0.1-0.1,0.1-0.2,0.1-0.3l0,0c-2.6-4.3-4.7-9-6.2-13.9C4,43.4,3.2,41,2.5,38.6c-0.3-1.2-0.6-2.3-0.9-3.5
			s-0.5-2.5-0.8-3.8C0.7,30.9,0.2,31.1,0.3,31.4z"/>
		<path d="M18.1,13.6c-0.8,0.4-1.3,1.7-1.7,2.4c-0.6,1-1.1,2-1.6,3c-1,2-1.8,4.1-2.5,6.2c-1.3,4.2-2.1,8.6-2.4,13.1
			c0,0.2,0.3,0.2,0.4,0c0.3-4.4,1.1-8.8,2.6-13c0.7-2.1,1.5-4.2,2.4-6.2c0.5-1,1-1.9,1.5-2.9c0.3-0.5,0.6-1,0.9-1.5
			C17.9,14.4,18.1,14,18.1,13.6C18.2,13.6,18.2,13.6,18.1,13.6L18.1,13.6z"/>
		<path d="M18.8,30.4c-1.8,1.6-3.4,3.4-5.1,5.1c-1.6,1.4-2.8,3.2-3.6,5.2c-1.7,4.4-1.2,9.3-0.6,13.9c0,0.3,0.6,0.3,0.5,0
			C9.5,50,9,45.3,10.5,41s5.5-7.1,8.5-10.3c0.1-0.1,0-0.2-0.1-0.3C18.9,30.4,18.8,30.4,18.8,30.4z"/>
		<path d="M5.1,29.6l2.2,11.6c0.9,3.8,1.3,7.8,1.4,11.7c0,0.2,0.2,0.3,0.4,0.2c0.1,0,0.2-0.1,0.2-0.2c0-3.9-0.5-7.8-1.5-11.6
			c-0.8-3.9-1.7-7.8-2.6-11.7C5.2,29.4,5.1,29.5,5.1,29.6L5.1,29.6z"/>
		<text transform="matrix(1 0 0 1 44.44 72.24)" class="st0 st2">D</text>
		<text transform="matrix(1 0 0 1 102.12 72.24)" class="st0 st2">A</text>
		<polygon points="153.4,58.1 142.9,58.1 142.9,57.6 152.9,57.6 152.9,27.8 30.4,27.8 30.4,57.6 39.8,57.6 39.8,58.1 29.9,58.1 
			29.9,27.3 153.4,27.3 		"/>
		<path d="M54.5,6.4c6.6,8.8,18.2,12.5,28.7,13.9c3.5,0.5,7,0.8,10.4,1c0.4,0,0.4-0.6,0-0.6c-11-1.1-23-2.3-32.4-8.7
			c-2.4-1.6-4.6-3.6-6.4-5.8C54.7,5.9,54.4,6.2,54.5,6.4z"/>
		<path d="M83.5,19.4c-0.9-0.4-1.8-1-2.5-1.7C80.2,17,79.6,16,79.2,15c-0.7-2.2-0.5-4.5,0.8-6.4l-0.3,0.1
			C83,11.1,84.5,15.4,83.5,19.4c0,0.2,0.1,0.3,0.3,0.3c0.1,0,0.3-0.1,0.3-0.2c1.1-4.3-0.6-8.8-4.1-11.3c-0.1-0.1-0.2,0-0.3,0.1
			c0,0,0,0,0,0c-1.4,2-1.8,4.7-0.9,7c0.8,2.1,2.5,3.8,4.6,4.5C83.5,19.9,83.7,19.6,83.5,19.4L83.5,19.4z"/>
		<path d="M78,18.8c-2.4-0.8-5-0.7-7.4,0.3c-2.5,0.9-4.8,2.1-7,3.6c-0.1,0.1-0.2,0.2-0.1,0.3c0,0,0.1,0.1,0.1,0.1
			c1.2,0.6,2.5,0.9,3.8,0.8c1.4,0,2.9-0.2,4.3-0.5c2.3-0.5,4.7-2,5.3-4.4c0-0.1-0.1-0.3-0.2-0.3c-0.1,0-0.2,0-0.2,0.1
			c-0.7,2.4-3,3.6-5.2,4.1c-1.2,0.2-2.5,0.4-3.7,0.4c-1.3,0.2-2.6-0.1-3.7-0.7v0.4c2.1-1.4,4.4-2.6,6.8-3.5c2.4-0.8,4.9-1,7.3-0.6
			C78,19,78,18.8,78,18.8L78,18.8z"/>
		<path d="M70.7,17c-1.9-1.4-3.3-3.3-4.2-5.5c-0.9-2.2-1.2-4.6-0.8-6.9l-0.3,0.1c3.8,2.7,5.8,7.3,5.2,11.9
			C70.5,16.8,70.6,17,70.7,17c0.2,0,0.4-0.1,0.4-0.2c0,0,0-0.1,0-0.1c0.5-4.8-1.6-9.6-5.5-12.4c-0.1-0.1-0.3,0-0.3,0.1
			c0,0,0,0,0,0.1c-0.9,4.9,1.1,10,5.2,12.9C70.7,17.5,70.9,17.2,70.7,17L70.7,17z"/>
		<path d="M63.8,13.9c-2-1.1-4.3-1.5-6.5-1.1c-2.5,0.5-4.9,1.3-7.1,2.5C50,15.4,50,15.5,50,15.6c0,0.1,0.1,0.1,0.1,0.1
			c4.5,1.2,10.3,2.3,14-1.4c0.1-0.1,0-0.2-0.1-0.3C64,14,63.9,14,63.8,14c-3.7,3.6-9.1,2.4-13.6,1.3l0.1,0.4c2.2-1,4.4-1.7,6.8-2.2
			c2.2-0.4,4.4-0.1,6.5,0.7C63.7,14.3,63.8,14,63.8,13.9L63.8,13.9z"/>
		<path d="M67.3,8.7c1.2,2.7,2.1,5.5,2.7,8.3c0.1,0.3,0.5,0.2,0.5-0.1c-0.7-2.8-1.7-5.6-2.8-8.3c0-0.1-0.1-0.2-0.2-0.2
			C67.4,8.4,67.3,8.5,67.3,8.7C67.3,8.7,67.3,8.7,67.3,8.7L67.3,8.7z"/>
		<path d="M80.2,11.7c0.5,1.2,1.1,2.4,1.6,3.6s1.2,2.5,1.6,3.7c0,0.1,0.1,0.2,0.3,0.2c0.1,0,0.2-0.1,0.2-0.3c0,0,0,0,0-0.1
			c-0.6-1.2-1.1-2.5-1.7-3.7l-1.7-3.7C80.4,11.4,80.1,11.6,80.2,11.7z"/>
		<path d="M68.7,21.7c2.6-1.4,5.8-1.2,8.1-3c0.2-0.1-0.1-0.4-0.3-0.3c-1.2,0.9-2.5,1.5-4,1.7c-1.4,0.2-2.7,0.6-4,1.2
			c-0.1,0.1-0.1,0.2,0,0.3C68.6,21.7,68.6,21.8,68.7,21.7L68.7,21.7z"/>
		<path d="M54.6,14.9c1.5,0.1,3.1,0.2,4.6,0.1c0.7,0,1.4,0,2.2-0.1c0.7-0.1,1.4-0.3,2.1-0.5c0.2-0.1,0.1-0.4-0.1-0.3
			c-1.4,0.5-2.9,0.7-4.3,0.6c-1.5-0.1-2.9-0.1-4.4-0.2C54.4,14.5,54.4,14.9,54.6,14.9z"/>
		<path d="M58,9.9c-2-0.3-3.8-1.7-4.6-3.6c-0.7-2-1-4-0.8-6.1l-0.4,0.2c1.7,1,3.1,2.2,4.3,3.8c1.2,1.8,1.2,4.1,1.6,6.2
			c0.1,0.3,0.6,0.3,0.6-0.1c-0.2-1.1-0.4-2.3-0.6-3.4c-0.2-1.1-0.6-2.1-1.2-3c-1.2-1.6-2.7-3-4.4-4c-0.1-0.1-0.3,0-0.4,0.1
			c0,0,0,0.1,0,0.1c-0.2,2.2,0.2,4.5,1,6.6c0.9,1.9,2.8,3.3,4.9,3.5C58.2,10.3,58.3,10,58,9.9L58,9.9z"/>
		<path d="M130,6.1c-3.3,3.9-7.5,7-12.2,9c-5.2,2.2-10.7,3.6-16.3,4.3c-3.4,0.5-6.9,0.9-10.3,1.2c-0.4,0-0.4,0.6,0,0.6
			c6.2-0.5,12.3-1,18.3-2.5c5.2-1.2,10.2-3.4,14.6-6.5c2.3-1.6,4.4-3.6,6.1-5.9C130.5,6.2,130.2,5.9,130,6.1z"/>
		<path d="M101.6,19.8c2.2-0.7,3.9-2.4,4.6-4.5c0.8-2.3,0.5-5-0.9-7c-0.1-0.1-0.2-0.1-0.3-0.1c0,0,0,0,0,0
			c-3.6,2.6-5.2,7.1-4.1,11.3c0.1,0.1,0.2,0.2,0.4,0.1c0.1-0.1,0.2-0.2,0.2-0.3c-1-4,0.5-8.2,3.8-10.7l-0.3-0.1
			c1.3,1.9,1.6,4.3,0.8,6.5c-0.4,1-0.9,1.9-1.7,2.6c-0.8,0.7-1.6,1.3-2.6,1.7C101.2,19.5,101.4,19.8,101.6,19.8L101.6,19.8z"/>
		<path d="M107,19c2.5-0.4,5-0.1,7.3,0.6c2.4,0.9,4.7,2.1,6.8,3.5v-0.4c-1.1,0.6-2.4,0.8-3.6,0.7c-1.3,0-2.6-0.2-3.8-0.4
			c-2.3-0.5-4.6-1.8-5.2-4.1c-0.1-0.1-0.2-0.2-0.3-0.1c-0.1,0-0.2,0.1-0.1,0.2c0.7,2.5,3,3.9,5.3,4.4c1.4,0.3,2.8,0.5,4.2,0.5
			c1.3,0.2,2.7-0.1,3.9-0.8c0.1-0.1,0.2-0.2,0.1-0.4c0,0,0-0.1-0.1-0.1c-2.2-1.5-4.5-2.7-7-3.6c-2.4-0.9-5-1-7.4-0.3
			C106.9,18.8,106.9,19,107,19L107,19z"/>
		<path d="M114.5,17.4c4-3,6-8,5.2-12.9c0-0.1-0.2-0.2-0.3-0.2c0,0,0,0-0.1,0c-3.9,2.9-6,7.6-5.5,12.4c0,0.2,0.2,0.3,0.3,0.3
			c0.2,0,0.3-0.2,0.3-0.3c-0.6-4.6,1.4-9.2,5.2-11.9l-0.3-0.1c0.4,2.3,0.1,4.7-0.8,6.9c-0.9,2.2-2.4,4.1-4.2,5.5
			C113.9,17.2,114.2,17.5,114.5,17.4L114.5,17.4z"/>
		<path d="M121.3,14.2c2.1-0.8,4.3-1,6.5-0.7c2.3,0.4,4.6,1.2,6.8,2.2v-0.4c-4.4,1.1-9.9,2.4-13.6-1.3c-0.2-0.2-0.5,0.1-0.3,0.3
			c3.7,3.7,9.5,2.6,14,1.4c0.1,0,0.2-0.2,0.2-0.3c0-0.1-0.1-0.1-0.1-0.1c-2.2-1.2-4.7-2-7.1-2.5c-2.2-0.4-4.5,0-6.5,1.1
			C120.9,14,121.1,14.3,121.3,14.2L121.3,14.2z"/>
		<path d="M117.2,8.5c-1.1,2.7-2.1,5.5-2.8,8.3c0,0.1,0,0.3,0.2,0.3c0.1,0,0.3,0,0.3-0.2c0.7-2.8,1.6-5.6,2.8-8.3
			c0-0.1,0-0.2-0.1-0.3S117.2,8.4,117.2,8.5z"/>
		<path d="M104.4,11.6l-1.7,3.7c-0.6,1.2-1.1,2.5-1.7,3.7c0,0.1,0,0.2,0.1,0.3c0.1,0,0.2,0,0.3-0.1l0,0c0.5-1.3,1.1-2.5,1.6-3.7
			s1.1-2.4,1.6-3.6C104.8,11.6,104.5,11.4,104.4,11.6z"/>
		<path d="M116.4,21.4c-1.3-0.6-2.7-1-4.1-1.2c-1.5-0.2-2.8-0.8-4-1.7c-0.2-0.2-0.4,0.1-0.3,0.3c2.3,1.9,5.6,1.6,8.1,3
			c0.1,0,0.2,0,0.3-0.1C116.5,21.5,116.5,21.4,116.4,21.4L116.4,21.4z"/>
		<path d="M130.3,14.5c-1.5,0.1-2.9,0.2-4.4,0.2c-1.5,0.1-2.9,0-4.3-0.6c-0.2-0.1-0.4,0.3-0.1,0.3c0.7,0.2,1.4,0.4,2.1,0.5
			c0.7,0.1,1.4,0.1,2.2,0.1c1.5,0,3.1-0.1,4.6-0.1C130.5,14.9,130.5,14.5,130.3,14.5z"/>
		<path d="M126.9,10.3c2.1-0.2,4-1.6,4.9-3.5c0.8-2.1,1.2-4.3,1-6.6c0-0.2-0.1-0.3-0.3-0.3c0,0-0.1,0-0.1,0c-1.7,1-3.2,2.4-4.4,4
			c-0.6,0.9-1,1.9-1.2,2.9c-0.2,1.2-0.4,2.3-0.6,3.5c0,0.3,0.5,0.4,0.6,0.1c0.4-2.1,0.4-4.4,1.6-6.2c1.2-1.5,2.6-2.8,4.3-3.8
			l-0.4-0.2c0.1,2.1-0.1,4.1-0.8,6.1c-0.9,1.9-2.6,3.2-4.6,3.6C126.7,9.9,126.7,10.4,126.9,10.3L126.9,10.3z"/>
		<path d="M145.9,17.8c0,0.1,0.1,0.3,0.3,0.3c16.3,0.7,29,14.5,28.3,30.8c-0.3,7.9-3.8,15.4-9.7,20.7c-0.1,0.1-0.1,0.3,0,0.4
			c0.1,0.1,0.2,0.1,0.3,0c12.4-11.1,13.3-30.2,2.2-42.5c-5.4-6-13-9.6-21.1-9.9C146.1,17.5,145.9,17.7,145.9,17.8L145.9,17.8z"/>
		<path d="M171.1,61.8c6.6-6.2,9.8-14.9,11.2-23.7c0.4-2.8,0.8-5.5,1-8.3l0.5,0.1c-3.8,10.4-7.7,20.8-11.5,31.1
			c-0.1,0.3-0.6,0.2-0.5-0.1c3.9-10.4,7.7-20.7,11.6-31.1c0.1-0.2,0.5-0.2,0.5,0.1c-0.8,9.3-2.4,18.9-7.7,26.8c-1.3,2-3,3.8-4.8,5.4
			C171.2,62.1,171,61.9,171.1,61.8L171.1,61.8z"/>
		<path d="M174.8,49.8c-4.4-5.6-8.8-11.2-13.1-17c-0.2-0.2,0.2-0.5,0.4-0.4C168.2,36.6,172.7,42.7,174.8,49.8
			c0.2,0.3-0.4,0.5-0.5,0.1c-2.2-6.9-6.5-12.9-12.5-17l0.4-0.4c4.2,5.7,8.5,11.3,12.9,16.9C175.3,49.6,175,50,174.8,49.8L174.8,49.8
			z"/>
		<path d="M173.3,39.7c0.5-5,0.1-10-1.3-14.8c-1.3-4.3-3.4-9.1-7.2-11.9l0.3-0.3c3.6,8.5,6.6,17.3,8.8,26.2c0.1,0.5-0.6,0.7-0.7,0.2
			c-2.1-9-5-17.7-8.5-26.2c-0.1-0.3,0.2-0.4,0.4-0.2c3.7,3,5.8,7.3,7.2,11.8c1.5,4.9,2,10.1,1.4,15.3
			C173.7,39.9,173.3,39.9,173.3,39.7z"/>
		<path d="M167.3,28.6l-15.1-6.2c-0.1,0-0.2-0.2-0.2-0.3c0-0.1,0.2-0.2,0.3-0.2c5.2,1,10.8,2.2,15,5.7c0.3,0.2-0.1,0.7-0.4,0.4
			c-4.1-3.5-9.5-4.7-14.7-5.7c0.1-0.2,0.1-0.3,0.1-0.5c5,2.1,10,4.1,15,6.2C167.7,28.2,167.6,28.7,167.3,28.6z"/>
		<path d="M158.6,21.2c-5.3-4-10.2-8.5-14.5-13.5c-0.1-0.1-0.1-0.4,0-0.5c0.1-0.1,0.3-0.1,0.4,0c3.3,1.4,5.9,3.9,8.5,6.4
			c2.9,2.8,5.7,5.6,8.3,8.7c0.3,0.3-0.2,0.8-0.5,0.5c-2.5-3-5.3-5.7-8-8.5c-2.5-2.6-5.2-5.1-8.6-6.5c0.1-0.2,0.2-0.4,0.3-0.6
			c4.3,5,9.1,9.6,14.1,13.8C158.8,21.1,158.7,21.3,158.6,21.2L158.6,21.2z"/>
		<path d="M168.4,66c0.7-1.6,1.2-3.3,1.6-5c0.4-1.7,0.6-3.5,0.6-5.2c0-3.6-0.8-7.1-2.6-10.2l0.4-0.1c0,3.5-0.1,7,0.1,10.6
			c0.2,3.3,0.9,6.7,0.2,10c-0.1,0.3-0.6,0.2-0.5-0.1c0.3-1.7,0.4-3.4,0.2-5.1c-0.1-1.7-0.2-3.4-0.4-5.1c-0.2-3.4-0.3-6.9-0.1-10.3
			c0-0.2,0.3-0.3,0.4-0.1c1.6,3.2,2.5,6.7,2.6,10.3c0.2,3.6-0.5,7.2-2.1,10.4C168.7,66.4,168.3,66.2,168.4,66L168.4,66z"/>
		<path d="M168.5,46.5c0.2,0.7,0.5,1.4,0.7,2.2s0.3,1.5,0.5,2.2c0.2,1.5,0.4,3,0.4,4.5c0.1,3,0,6.1-0.5,9.1
			c-0.1,0.3-0.6,0.2-0.5-0.1c0.6-2.9,0.8-6,0.6-9c-0.1-1.5-0.3-3-0.5-4.5c-0.2-1.5-0.4-3-0.8-4.4C168.4,46.5,168.4,46.5,168.5,46.5
			C168.5,46.5,168.5,46.6,168.5,46.5L168.5,46.5z"/>
		<path d="M183.6,31.4c-0.3,1.3-0.7,2.5-1.1,3.8s-0.6,2.5-0.9,3.8c-0.6,2.4-1.3,4.9-2.1,7.3c-1.6,4.8-3.6,9.4-6.1,13.8
			c-0.1,0.2-0.5,0-0.4-0.2c2.6-4.3,4.7-9,6.1-13.9c0.8-2.4,1.5-4.8,2.2-7.2c0.3-1.2,0.6-2.3,0.9-3.5s0.5-2.5,0.8-3.8
			C183.2,30.9,183.7,31.1,183.6,31.4z"/>
		<path d="M165.8,13.6c0.8,0.4,1.3,1.7,1.7,2.4c0.6,1,1.1,2,1.6,3c1,2,1.8,4.1,2.5,6.2c1.3,4.3,2.1,8.7,2.4,13.1
			c0,0.2-0.3,0.2-0.3,0c-0.3-4.4-1.1-8.8-2.6-13c-0.7-2.1-1.5-4.2-2.4-6.2c-0.5-1-1-1.9-1.5-2.9c-0.3-0.5-0.6-1-0.8-1.5
			C165.9,14.4,165.7,14.1,165.8,13.6C165.7,13.6,165.7,13.6,165.8,13.6z"/>
		<path d="M165.1,30.4c1.8,1.6,3.4,3.4,5.1,5.1c1.6,1.4,2.8,3.2,3.6,5.2c1.7,4.4,1.2,9.3,0.6,13.9c0,0.3-0.6,0.3-0.5,0
			c0.5-4.5,1-9.2-0.6-13.5s-5.4-7.1-8.6-10.3c-0.1-0.1,0-0.2,0.1-0.3C164.9,30.4,165,30.4,165.1,30.4L165.1,30.4z"/>
		<path d="M178.8,29.6c-0.7,3.8-1.5,7.7-2.2,11.6c-0.9,3.8-1.3,7.8-1.4,11.7c0,0.2-0.2,0.3-0.4,0.2c-0.1,0-0.2-0.1-0.2-0.2
			c0-3.9,0.6-7.8,1.5-11.6c0.8-3.9,1.7-7.8,2.6-11.8C178.6,29.4,178.8,29.5,178.8,29.6L178.8,29.6z"/>
	</g>
</g>
</svg>
