<svg xmlns="http://www.w3.org/2000/svg" viewBox="0 0 183.84 89.63"><defs><style>.cls-1{font-size:27.05px;}.cls-1,.cls-2,.cls-3{fill:#8d8050;}.cls-1,.cls-3{font-family:Alice-Regular, Alice;}.cls-3{font-size:53.83px;}</style></defs><g id="Layer_2" data-name="Layer 2"><g id="OBJECTS"><text class="cls-1" transform="translate(82.01 66.79)">&amp;</text><path class="cls-2" d="M37.91,17.83a.27.27,0,0,1-.26.27A29.57,29.57,0,0,0,19.09,69.59a.28.28,0,1,1-.37.41A30.12,30.12,0,0,1,37.63,17.55a.28.28,0,0,1,.28.26Z"/><path class="cls-2" d="M12.71,61.81C6.07,55.57,2.94,46.94,1.49,38.13,1,35.37.74,32.6.49,29.82L0,29.88Q5.79,45.45,11.55,61c.11.31.62.17.5-.14Q6.26,45.32.48,29.75c-.09-.23-.51-.22-.48.07C.84,39.11,2.36,48.71,7.69,56.6A27.25,27.25,0,0,0,12.47,62c.16.14.4-.09.24-.23Z"/><path class="cls-2" d="M9,49.76c4.45-5.59,8.85-11.23,13.11-17,.17-.23-.17-.55-.4-.39A33.22,33.22,0,0,0,9,49.73c-.13.4.5.57.62.17A32.77,32.77,0,0,1,22,32.9l-.4-.4Q15.3,41.05,8.72,49.44c-.17.23.14.55.32.32Z"/><path class="cls-2" d="M10.52,39.7a37.82,37.82,0,0,1,1.35-14.81c1.32-4.32,3.44-9.09,7.18-11.86l-.35-.34A176.16,176.16,0,0,0,9.91,38.9c-.13.49.64.69.75.21a176.39,176.39,0,0,1,8.5-26.23c.11-.26-.25-.38-.42-.25-3.7,3-5.81,7.3-7.16,11.8A38.11,38.11,0,0,0,10.14,39.7c0,.24.4.24.38,0Z"/><path class="cls-2" d="M16.57,28.6l15-6.2a.26.26,0,0,0-.14-.5C26.23,23,20.71,24.08,16.52,27.63c-.3.25.13.68.42.43,4.09-3.53,9.52-4.67,14.67-5.66-.05-.17-.09-.34-.14-.5l-15,6.21c-.29.12-.16.61.14.49Z"/><path class="cls-2" d="M25.26,21.23A89.37,89.37,0,0,0,39.74,7.68a.34.34,0,0,0-.41-.54c-3.28,1.44-5.95,3.93-8.47,6.41-2.85,2.83-5.71,5.65-8.31,8.72-.28.33.2.82.49.48,2.52-3,5.28-5.71,8-8.48,2.53-2.57,5.18-5.09,8.55-6.5l-.33-.58A124.12,124.12,0,0,1,25.11,21c-.11.09,0,.28.15.2Z"/><path class="cls-2" d="M15.46,66a32.15,32.15,0,0,1-1.64-4.91,25.26,25.26,0,0,1-.58-5.2,20.59,20.59,0,0,1,2.65-10.18l-.39-.11c0,3.53.07,7-.13,10.58-.19,3.3-.92,6.74-.18,10,.07.31.55.18.48-.13A16.65,16.65,0,0,1,15.42,61c.12-1.7.25-3.39.35-5.08a88.68,88.68,0,0,0,.15-10.31c0-.19-.29-.31-.39-.11A25.73,25.73,0,0,0,12.9,55.74,19.94,19.94,0,0,0,15,66.15c.12.23.53.07.43-.19Z"/><path class="cls-2" d="M15.38,46.54c-.23.73-.54,1.43-.73,2.18s-.35,1.49-.47,2.24a40.08,40.08,0,0,0-.44,4.5,44.59,44.59,0,0,0,.52,9.09c.05.33.57.2.51-.14a35.84,35.84,0,0,1-.63-8.95A42.62,42.62,0,0,1,14.68,51c.26-1.46.45-3,.81-4.4,0-.07-.09-.1-.11,0Z"/><path class="cls-2" d="M.27,31.38c.3,1.26.72,2.5,1.05,3.76s.63,2.52.94,3.79c.61,2.44,1.28,4.88,2.08,7.26A74.35,74.35,0,0,0,10.5,59.94a.22.22,0,0,0,.38-.23A60.2,60.2,0,0,1,4.72,45.84C4,43.43,3.22,41,2.53,38.6c-.34-1.18-.65-2.35-.94-3.54s-.51-2.55-.82-3.82c-.08-.32-.58-.18-.5.14Z"/><path class="cls-2" d="M18.09,13.59c-.77.39-1.26,1.68-1.66,2.4-.55,1-1.06,2-1.55,3a47.7,47.7,0,0,0-2.5,6.17A52.76,52.76,0,0,0,10,38.25c0,.22.33.22.35,0a50.31,50.31,0,0,1,2.56-13,55.52,55.52,0,0,1,2.45-6.18c.46-1,1-1.93,1.48-2.87.28-.49.56-1,.85-1.46a2.42,2.42,0,0,0,.48-1.13s0-.06-.08-.05Z"/><path class="cls-2" d="M18.78,30.4C17,32,15.39,33.8,13.66,35.46a14.16,14.16,0,0,0-3.6,5.18C8.37,45.07,8.9,49.91,9.43,54.5c0,.33.56.34.53,0-.5-4.47-1-9.16.56-13.49S16,33.93,19.07,30.69a.21.21,0,0,0-.29-.29Z"/><path class="cls-2" d="M5.06,29.57,7.31,41.13A55.85,55.85,0,0,1,8.7,52.85a.31.31,0,0,0,.61,0A46.71,46.71,0,0,0,7.77,41.28Q6.5,35.4,5.21,29.53c0-.1-.16-.06-.15,0Z"/><text class="cls-3" transform="translate(44.44 72.24)">D</text><text class="cls-3" transform="translate(102.12 72.24)">A</text><polygon class="cls-2" points="153.45 58.12 142.93 58.12 142.93 57.62 152.95 57.62 152.95 27.79 30.43 27.79 30.43 57.62 39.83 57.62 39.83 58.12 29.93 58.12 29.93 27.29 153.45 27.29 153.45 58.12"/><path class="cls-2" d="M54.53,6.37c6.64,8.84,18.16,12.47,28.67,13.87,3.47.47,7,.75,10.43,1.05.39,0,.39-.58,0-.62-11-1.08-23-2.26-32.36-8.72a31.75,31.75,0,0,1-6.41-5.84c-.15-.18-.48.07-.33.26Z"/><path class="cls-2" d="M83.46,19.42a10.42,10.42,0,0,1-2.53-1.68A7.13,7.13,0,0,1,79.21,15,7.39,7.39,0,0,1,80,8.55l-.33.09a10.37,10.37,0,0,1,3.83,10.78.29.29,0,0,0,.56.15A10.76,10.76,0,0,0,79.93,8.23a.23.23,0,0,0-.32.08,7.7,7.7,0,0,0-.92,7,7.33,7.33,0,0,0,4.62,4.52c.21.05.36-.26.15-.37Z"/><path class="cls-2" d="M78,18.76a11.11,11.11,0,0,0-7.39.27,33.92,33.92,0,0,0-7.05,3.59.25.25,0,0,0,0,.44,6.44,6.44,0,0,0,3.79.75,23,23,0,0,0,4.29-.52c2.34-.55,4.66-2,5.33-4.44a.24.24,0,0,0-.46-.12c-.66,2.37-3,3.63-5.22,4.12a24.76,24.76,0,0,1-3.74.43,6.26,6.26,0,0,1-3.74-.66v.44A34.06,34.06,0,0,1,70.6,19.6,15.93,15.93,0,0,1,77.92,19c.12,0,.13-.17,0-.2Z"/><path class="cls-2" d="M70.72,17a13.79,13.79,0,0,1-4.22-5.52,12.77,12.77,0,0,1-.78-6.91l-.35.14a12.58,12.58,0,0,1,5.19,11.93.29.29,0,1,0,.57.07A13.63,13.63,0,0,0,65.61,4.29a.24.24,0,0,0-.35.14,13.21,13.21,0,0,0,5.17,12.94c.22.15.51-.21.29-.38Z"/><path class="cls-2" d="M63.75,13.92a9.8,9.8,0,0,0-6.47-1.05,26.28,26.28,0,0,0-7.14,2.46.23.23,0,0,0,0,.42c4.55,1.21,10.28,2.31,14-1.4a.23.23,0,0,0-.32-.32c-3.67,3.65-9.13,2.35-13.58,1.28l.06.42a28,28,0,0,1,6.77-2.17,12.34,12.34,0,0,1,6.48.68c.19.08.3-.22.13-.32Z"/><path class="cls-2" d="M67.34,8.67A50.43,50.43,0,0,1,70.08,17c.07.29.54.17.46-.13a64.27,64.27,0,0,0-2.82-8.33.21.21,0,1,0-.38.16Z"/><path class="cls-2" d="M80.21,11.74c.53,1.21,1.05,2.43,1.58,3.64s1.15,2.46,1.61,3.73a.22.22,0,1,0,.4-.17c-.63-1.18-1.12-2.45-1.67-3.67l-1.67-3.68c-.07-.18-.33,0-.25.15Z"/><path class="cls-2" d="M68.67,21.73c2.55-1.39,5.8-1.16,8.12-3,.18-.15-.08-.42-.26-.26a8.17,8.17,0,0,1-4,1.7,13.54,13.54,0,0,0-4,1.21.21.21,0,0,0,.2.36Z"/><path class="cls-2" d="M54.63,14.94c1.54.07,3.08.16,4.61.13a19.45,19.45,0,0,0,2.17-.13,16.27,16.27,0,0,0,2.07-.46c.23-.06.1-.43-.14-.32a9.83,9.83,0,0,1-4.34.56c-1.46-.05-2.91-.15-4.37-.21-.28,0-.28.42,0,.43Z"/><path class="cls-2" d="M58.05,9.92a6.17,6.17,0,0,1-4.61-3.55A14.94,14.94,0,0,1,52.63.28l-.42.25A14.53,14.53,0,0,1,56.5,4.31c1.2,1.82,1.19,4.12,1.6,6.19.06.33.63.26.59-.08-.15-1.14-.36-2.29-.58-3.42a8.44,8.44,0,0,0-1.18-3A15.77,15.77,0,0,0,52.49,0a.28.28,0,0,0-.42.24,14.48,14.48,0,0,0,1,6.56A6.21,6.21,0,0,0,58,10.32c.23,0,.29-.36.06-.4Z"/><path class="cls-2" d="M130,6.11a33.52,33.52,0,0,1-12.18,9.05,62.18,62.18,0,0,1-16.26,4.3c-3.43.51-6.87.87-10.32,1.21-.39,0-.4.65,0,.62,6.16-.54,12.33-1,18.35-2.54a43.15,43.15,0,0,0,14.64-6.51,27.45,27.45,0,0,0,6.11-5.87c.15-.19-.18-.45-.34-.26Z"/><path class="cls-2" d="M101.58,19.79a7.36,7.36,0,0,0,4.62-4.52,7.7,7.7,0,0,0-.92-7,.24.24,0,0,0-.33-.08,10.75,10.75,0,0,0-4.14,11.34.29.29,0,0,0,.55-.15A10.37,10.37,0,0,1,105.2,8.64l-.33-.09a7.45,7.45,0,0,1,.81,6.49A7.11,7.11,0,0,1,104,17.68a10.06,10.06,0,0,1-2.59,1.74c-.21.11-.06.42.16.37Z"/><path class="cls-2" d="M107,19a16,16,0,0,1,7.32.64,33.72,33.72,0,0,1,6.83,3.46v-.44a6.14,6.14,0,0,1-3.63.67,24.82,24.82,0,0,1-3.84-.44c-2.26-.49-4.56-1.75-5.22-4.12a.24.24,0,0,0-.46.12c.67,2.46,3,3.88,5.33,4.44a22.65,22.65,0,0,0,4.19.52,6.61,6.61,0,0,0,3.89-.75.26.26,0,0,0,0-.44,34.17,34.17,0,0,0-7-3.59,11.11,11.11,0,0,0-7.39-.27c-.1,0-.1.21,0,.2Z"/><path class="cls-2" d="M114.46,17.37a13.22,13.22,0,0,0,5.16-12.94.24.24,0,0,0-.35-.14,13.63,13.63,0,0,0-5.52,12.41.29.29,0,1,0,.58-.07A12.59,12.59,0,0,1,119.51,4.7l-.35-.14a12.67,12.67,0,0,1-.77,6.91A13.88,13.88,0,0,1,114.17,17c-.22.17.06.53.29.38Z"/><path class="cls-2" d="M121.27,14.24a12.32,12.32,0,0,1,6.47-.68,27.93,27.93,0,0,1,6.78,2.17l0-.42c-4.44,1.07-9.9,2.37-13.58-1.28-.2-.2-.51.11-.31.32,3.74,3.71,9.47,2.61,14,1.4a.23.23,0,0,0,.05-.42,26.28,26.28,0,0,0-7.14-2.46,9.83,9.83,0,0,0-6.48,1.05c-.16.1,0,.4.14.32Z"/><path class="cls-2" d="M117.16,8.51a64.22,64.22,0,0,0-2.81,8.33.23.23,0,0,0,.45.13,49.54,49.54,0,0,1,2.75-8.3.21.21,0,1,0-.39-.16Z"/><path class="cls-2" d="M104.42,11.59l-1.66,3.68c-.55,1.21-1.05,2.49-1.68,3.67a.22.22,0,1,0,.41.17c.46-1.27,1.07-2.49,1.61-3.73s1.05-2.43,1.58-3.64c.07-.18-.18-.33-.26-.15Z"/><path class="cls-2" d="M116.42,21.37a13.69,13.69,0,0,0-4.06-1.21,8.1,8.1,0,0,1-4-1.7c-.18-.16-.44.11-.26.26,2.32,1.85,5.57,1.62,8.12,3a.21.21,0,0,0,.2-.36Z"/><path class="cls-2" d="M130.26,14.51c-1.46.06-2.92.16-4.38.21a9.79,9.79,0,0,1-4.33-.56c-.24-.11-.38.26-.14.32a16.13,16.13,0,0,0,2.06.46,19.74,19.74,0,0,0,2.17.13c1.54,0,3.08-.06,4.62-.13.27,0,.27-.44,0-.43Z"/><path class="cls-2" d="M126.89,10.32a6.21,6.21,0,0,0,4.9-3.48,14.48,14.48,0,0,0,1-6.56A.28.28,0,0,0,132.4,0,15.5,15.5,0,0,0,128,4a8,8,0,0,0-1.16,2.94c-.24,1.16-.45,2.34-.6,3.51,0,.34.53.41.59.08.41-2.07.39-4.37,1.59-6.19a14.45,14.45,0,0,1,4.3-3.78l-.42-.25a15.11,15.11,0,0,1-.81,6.09,6.19,6.19,0,0,1-4.61,3.55c-.23,0-.18.43,0,.4Z"/><path class="cls-2" d="M145.93,17.83a.28.28,0,0,0,.27.27,29.56,29.56,0,0,1,18.55,51.49.28.28,0,0,0,.37.41,30.11,30.11,0,0,0-18.9-52.45.28.28,0,0,0-.29.26Z"/><path class="cls-2" d="M171.14,61.81c6.64-6.24,9.77-14.87,11.21-23.68.45-2.76.75-5.53,1-8.31l.47.06Q178.05,45.45,172.3,61c-.12.31-.62.17-.51-.14q5.81-15.55,11.58-31.12c.08-.23.5-.22.47.07-.84,9.29-2.36,18.89-7.69,26.78A26.94,26.94,0,0,1,171.37,62c-.16.14-.39-.09-.23-.23Z"/><path class="cls-2" d="M174.8,49.76c-4.45-5.59-8.84-11.23-13.1-17-.17-.23.16-.55.4-.39a33.33,33.33,0,0,1,12.79,17.33c.12.4-.5.57-.63.17a32.77,32.77,0,0,0-12.46-17l.4-.4q6.35,8.55,12.92,16.94c.18.23-.14.55-.32.32Z"/><path class="cls-2" d="M173.33,39.7A38.2,38.2,0,0,0,172,24.89c-1.32-4.32-3.45-9.09-7.18-11.86l.34-.34a175,175,0,0,1,8.79,26.21c.13.49-.64.69-.74.21a176.43,176.43,0,0,0-8.51-26.23c-.1-.26.25-.38.42-.25,3.71,3,5.82,7.3,7.16,11.8A37.76,37.76,0,0,1,173.7,39.7c0,.24-.4.24-.37,0Z"/><path class="cls-2" d="M167.28,28.6l-15.05-6.2a.26.26,0,0,1,.14-.5c5.25,1.05,10.76,2.18,15,5.73.3.25-.14.68-.43.43-4.08-3.53-9.51-4.67-14.67-5.66.05-.17.1-.34.14-.5q7.53,3.09,15,6.21c.3.12.17.61-.13.49Z"/><path class="cls-2" d="M158.59,21.23A89.85,89.85,0,0,1,144.1,7.68a.35.35,0,0,1,.42-.54c3.27,1.44,5.95,3.93,8.46,6.41,2.86,2.83,5.71,5.65,8.31,8.72.28.33-.2.82-.48.48-2.52-3-5.28-5.71-8-8.48-2.53-2.57-5.17-5.09-8.55-6.5.11-.19.22-.39.34-.58A123.31,123.31,0,0,0,158.74,21c.1.09,0,.28-.15.2Z"/><path class="cls-2" d="M168.38,66A32.15,32.15,0,0,0,170,61.05a24.59,24.59,0,0,0,.58-5.2A20.38,20.38,0,0,0,168,45.67l.39-.11c0,3.53-.07,7,.14,10.58.19,3.3.91,6.74.17,10-.07.31-.55.18-.47-.13a17,17,0,0,0,.24-5.08c-.11-1.7-.25-3.39-.35-5.08a91,91,0,0,1-.15-10.31c0-.19.3-.31.4-.11A26.07,26.07,0,0,1,171,55.74a20,20,0,0,1-2.13,10.41c-.13.23-.54.07-.44-.19Z"/><path class="cls-2" d="M168.47,46.54c.23.73.54,1.43.73,2.18s.34,1.49.46,2.24a35.89,35.89,0,0,1,.44,4.5,45.31,45.31,0,0,1-.51,9.09c-.06.33-.58.2-.51-.14a35.83,35.83,0,0,0,.62-8.95,40.14,40.14,0,0,0-.54-4.49c-.25-1.46-.44-3-.8-4.4a.06.06,0,0,1,.11,0Z"/><path class="cls-2" d="M183.58,31.38c-.31,1.26-.73,2.5-1.05,3.76s-.63,2.52-.95,3.79c-.61,2.44-1.27,4.88-2.08,7.26a74.31,74.31,0,0,1-6.15,13.75c-.15.24-.54,0-.38-.23a60.6,60.6,0,0,0,6.15-13.87c.77-2.41,1.51-4.81,2.2-7.24.33-1.18.64-2.35.94-3.54s.51-2.55.82-3.82c.08-.32.58-.18.5.14Z"/><path class="cls-2" d="M165.75,13.59c.77.39,1.26,1.68,1.66,2.4.55,1,1.07,2,1.55,3a47.76,47.76,0,0,1,2.51,6.17,53.2,53.2,0,0,1,2.37,13.12c0,.22-.33.22-.34,0a49.91,49.91,0,0,0-2.57-13,57.47,57.47,0,0,0-2.44-6.18c-.47-1-1-1.93-1.49-2.87-.27-.49-.56-1-.84-1.46a2.32,2.32,0,0,1-.48-1.13s0-.06.07-.05Z"/><path class="cls-2" d="M165.06,30.4c1.76,1.62,3.4,3.4,5.13,5.06a14,14,0,0,1,3.59,5.18c1.7,4.43,1.17,9.27.63,13.86,0,.33-.56.34-.52,0,.5-4.47,1-9.16-.57-13.49s-5.45-7.08-8.55-10.32a.21.21,0,0,1,.29-.29Z"/><path class="cls-2" d="M178.78,29.57q-1.11,5.77-2.24,11.56a55.86,55.86,0,0,0-1.4,11.72.31.31,0,0,1-.61,0,47.67,47.67,0,0,1,1.54-11.57q1.27-5.88,2.56-11.75c0-.1.17-.06.15,0Z"/></g></g></svg>